<mxfile host="65bd71144e">
    <diagram id="9Lie7EBG0nTWLz1_ppZM" name="ページ1">
        <mxGraphModel dx="2218" dy="1087" grid="1" gridSize="10" guides="1" tooltips="1" connect="1" arrows="1" fold="1" page="1" pageScale="1" pageWidth="1654" pageHeight="1169" math="0" shadow="0">
            <root>
                <mxCell id="0"/>
                <mxCell id="1" parent="0"/>
                <mxCell id="2" style="edgeStyle=none;html=1;exitX=1;exitY=0.5;exitDx=0;exitDy=0;endArrow=none;endFill=0;entryX=0;entryY=0.5;entryDx=0;entryDy=0;entryPerimeter=0;" parent="1" source="3" target="112" edge="1">
                    <mxGeometry relative="1" as="geometry"/>
                </mxCell>
                <mxCell id="3" value="" style="rounded=0;whiteSpace=wrap;html=1;fillColor=none;" parent="1" vertex="1">
                    <mxGeometry x="1150" y="430" width="340" height="620" as="geometry"/>
                </mxCell>
                <mxCell id="4" value="" style="rounded=0;whiteSpace=wrap;html=1;fillColor=none;" parent="1" vertex="1">
                    <mxGeometry x="320" y="430" width="410" height="542" as="geometry"/>
                </mxCell>
                <mxCell id="5" value="" style="rounded=0;whiteSpace=wrap;html=1;fillColor=none;" parent="1" vertex="1">
                    <mxGeometry x="530" y="872" width="170" height="80" as="geometry"/>
                </mxCell>
                <mxCell id="6" value="" style="rounded=0;whiteSpace=wrap;html=1;fillColor=none;" parent="1" vertex="1">
                    <mxGeometry x="340" y="872" width="190" height="80" as="geometry"/>
                </mxCell>
                <mxCell id="7" value="# 概要&lt;br&gt;&lt;br&gt;アプリ名&lt;span style=&quot;white-space: pre;&quot;&gt;&#9;&lt;/span&gt;：Kansho&lt;br&gt;説明&lt;span style=&quot;white-space: pre;&quot;&gt;&#9;&lt;/span&gt;&lt;span style=&quot;white-space: pre;&quot;&gt;&#9;&lt;/span&gt;：映画・TVドラマなどの動画をどの程度鑑賞したか記録するアプリ" style="text;html=1;strokeColor=none;fillColor=none;align=left;verticalAlign=top;whiteSpace=wrap;rounded=0;" parent="1" vertex="1">
                    <mxGeometry x="40" y="40" width="440" height="80" as="geometry"/>
                </mxCell>
                <mxCell id="8" value="# 画面構成&lt;br&gt;&lt;br&gt;&lt;ul&gt;&lt;li&gt;1: リスト画面（ListPage）&lt;/li&gt;&lt;li&gt;2: 編集画面（EditPage）　*EditPageは、動画の新規登録と編集画面を兼ねる&lt;/li&gt;&lt;/ul&gt;" style="text;html=1;strokeColor=none;fillColor=none;align=left;verticalAlign=top;whiteSpace=wrap;rounded=0;" parent="1" vertex="1">
                    <mxGeometry x="40" y="160" width="530" height="100" as="geometry"/>
                </mxCell>
                <mxCell id="9" value="# 画面レイアウト&lt;br&gt;&lt;br&gt;" style="text;html=1;strokeColor=none;fillColor=none;align=left;verticalAlign=top;whiteSpace=wrap;rounded=0;" parent="1" vertex="1">
                    <mxGeometry x="40" y="320" width="180" height="30" as="geometry"/>
                </mxCell>
                <mxCell id="10" value="動画&amp;nbsp; Kansho" style="text;html=1;strokeColor=none;fillColor=none;align=left;verticalAlign=middle;whiteSpace=wrap;rounded=0;fontStyle=1" parent="1" vertex="1">
                    <mxGeometry x="370" y="456.5" width="90" height="30" as="geometry"/>
                </mxCell>
                <mxCell id="11" value="" style="endArrow=none;html=1;" parent="1" edge="1">
                    <mxGeometry width="50" height="50" relative="1" as="geometry">
                        <mxPoint x="330" y="502" as="sourcePoint"/>
                        <mxPoint x="700" y="502" as="targetPoint"/>
                    </mxGeometry>
                </mxCell>
                <mxCell id="12" value="Search title" style="strokeWidth=1;shadow=0;dashed=0;align=center;html=1;shape=mxgraph.mockup.forms.searchBox;strokeColor=#999999;mainText=;strokeColor2=#008cff;fontColor=#666666;fontSize=17;align=left;spacingLeft=3;" parent="1" vertex="1">
                    <mxGeometry x="337.7" y="512" width="362.3" height="30" as="geometry"/>
                </mxCell>
                <mxCell id="13" style="edgeStyle=orthogonalEdgeStyle;html=1;exitX=0;exitY=0.5;exitDx=0;exitDy=0;entryX=0;entryY=0;entryDx=140;entryDy=65;entryPerimeter=0;curved=1;endArrow=none;endFill=0;" parent="1" source="14" target="29" edge="1">
                    <mxGeometry relative="1" as="geometry"/>
                </mxCell>
                <mxCell id="14" value="" style="shape=image;verticalLabelPosition=bottom;labelBackgroundColor=default;verticalAlign=top;aspect=fixed;imageAspect=0;image=data:image/png,iVBORw0KGgoAAAANSUhEUgAAAO8AAAEeCAYAAABiyUKxAAAAAXNSR0IArs4c6QAAAARnQU1BAACxjwv8YQUAAAAJcEhZcwAADsMAAA7DAcdvqGQAABeTSURBVHhe7d0HdFVltgfwDUgNNUjo5WkUdHhSlISiAiogIC0EEgiQYuiEEEgxhh5qaAkgvahAKIL1CdKRDhJ6y0iQEkRKQhERNMDLPvPhYIHcm5x77t3n/n9rseDbGWeWzP3f8/WT687djAcEAOLkVr8DgDAIL4BQCC+AUAgvgFAIL4BQCC+AUAgvgFAIL4BQCC+AUAgvgFAIL4BQCC+AUAgvgFAIL4BQCC+AUAgvgFAIL4BQThveBw9wgQjI5hTX4Ny7d4+Sk5PpxInjdO7cWbpy+QpdvnyJihYrRiVdS1Ipt1Lk7v4ceXrWJRcXF/VPATg204Y3JeUU7d61i3bu2knHjx2lGzdu0u3bv9C1a9fUf+K/OLD58uenokWKUtWqValuvXpU5xUPevFf/6LChQur/xSAYzFVeLkr/OOPF2jmjBm0ceMGOn06Rf3Eem5upalmzZrk26kzvfrqa1Qs8ykN4EhME96rV6/Qgvnzad68OZlP2Ruqqg/uUkdERlHbtu1UBcD+TBHeZUsTKTo6KrNbfFtVbKNTZz8aMSIWT2FwCKLDy0/b4cOH0WefrqKMjAxVta3aL79Mo2LH0MuvvKIqAPYhNrxnzvxAQwbH0Lp1a1XFOFWrVqNx4+Oofv0GqgJgPJHhTU09TwPDBtC3325RFeNVrFiJ5s5bQLVq1VIVAGOJCy8v9XTy7UAHDhxQFfspXrw4LV+xSpuVBjCaqB1WFy6kkq+Pt0MEl12/fp2CAv1p27atqgJgHDHh5TXbAaH96eDBg6riGPgLJSoygrZs2awqAMYQ0W3+4YfTFBkRTlu3fqsqjqdy5So0ffoM8vD0VBUA23L48PIeZP9uXWj//v2q4rhKlXKjxUuWYgwMhnDobvOlSz9RB28vEcFlV65cpm5d/bQ91QC25rDh5TFuYKA/nTx5UlVk4C+c0NAQbW81gC05ZHhPnfqeIsIHUdK+faoiC28geS8q0i4bSMB5ONyYl2dve/fuSXt271YVuZ5+uhQtWPAhedatqyoA+nGo8F5LT6e2bVuJ6yo/CZ8H/ujjxdqxQgA9OUy3+ezZM+Tt3c5UwWW3bt2iPr170TffrFEVAH04RHh5jMsbMI4ePaoq5sKTWDHvRyPAoCu7d5v5icvB3blzh6qYV+nSZWjGzFnoQoMu7Bre9LQ08vHxpsOHD6uK+RUpUoSWLFmGSSzIMbt1m/muKS+vNk4VXPbzzz9TUFAArV+/TlUAsscu4eUxbs+e3enEiROq4lz4BhA+zLBmzWpVAbCe4eHlnVP8wd27Z4+qOCdez+ZJrE2bNqoKgHUMHfP+9NNFCg4Oou/27lUVKOHqSh99uAhjYLCaYeHlTfve7c23jqsHvpFj9px51KhRY1UByJoh3Wbe68unbRDcf8Y3cvByGcbAYA2bh5cnpwYNDBNzrM9eLl78kQbHvI/DDGAxm3abz58/R/369cH5Vivwa1bmzp2vvS8J4ElsFl5+5UjbNu/Q8ePHVQUsVahQIUpMXE716tdXFYC/s0m3mZ+4CG728WtbevQIRhcankj38PIYl7vKCG7O8N1d0e9F4TADPJau3Wa+5TF80EDavn2bqkBOlS1bjhKmTqOGDRupCsB/6BZe3qsc4N+VDh06pCrGy5s3L/3++++qZR78VsJFixKxkQP+RJdu87lzZ8nXp6NdgxsUFKz9spXcuQ1ZEv9HPPkXENgNl9rBn+T4E5mScop69gim5GT7bcAIDHqXot+PoebNW6iK/qpXr07x8VOpTJmyqmIsPj7Jl/JhIwc8lKPw8uQUv8nAXhsw+GnYoaMPDRs2gooWLUpFMn/ZCl8m19HHl0aNHqONQ+3h4WEGHCcElu3w8hg3LCzUbpNTuXLl0sI0ZUoCFSxYUKulp6dpv9tCnjx5tF+tWrWm8XETtDDbAweY74U2w+2akDPZCi8fKPfr7GvXY30BgUEUFzdRm6R6yJaTVb/99hs9ePCfub1mzd6m2XPmajdD2kPa1avUpUsnpz9W6eysDi8HJCoy3K7ruP37D9C6yvnz51cV27t///4f4WV8DxVf6crbGe3h5s2bNHhwtLYhBpyT1eH9/LNPadWqlaplLB7jdu/ekwaFR/zRVTbSo+FlHOC4CROpXLnyqmIsnt2fPn2aaoGzsSq8fAvGpEkTVctYHNxOnf1o+IiRVKBAAVW1P57h5kksvhnSHlYsX4YlJCdlVXhXLF+u7aIyGk9O8RN3woRJ9NRTT6mq42jZ8h2aNv0DbcbbaLwPesH8eaoFzsTi8PKHZNfunaplrLCwQRQzeIg22+uoePsij4FdS5ZUFeMk7U/S1oHBuVgc3qNHjlDq+VTVMgZ3lXlyKnRAmKGTU9lVv34DSkiYZvg68K+ZX6zf7ftOtcBZWBxeHu/y2q5RuHvM2x0jIqMcaoyblaZNmxm+kYMn0k6ePKHNiIPzsDi8aelphn04+IkbEBBEsaNGU758+VRVjnfeaaXNQhvVheY5gbSradpaNDgPi8NbrGgxQzYl8AeRx7jDho/QQiwVP4Hnz19o2CRWCdcSIr/osotvI+U7r6dPn0rDhg6h2JEjaNnSRNO+rO6fWJwOt9KlycXFtuHlsL4fM1gb45rhg8hj4LnzFth8GYm7zZUqVRb9ZWcpvvN7VOxIau/VVrv0gUM7a9YMLcSRkeHaLaVd/DrR0sQl2tsZzczi/7fr1PHQ7he2Fd7myE/c3r37ipicshTfxTx23HibbuTgLzpPT0/VMqc7d+7Q8GFDyc/Pl6ZNS6Dk5GRtm+ij7t69q+395oMbAwb0p06+HWl/UpL6qflYHN4SJUpox+JsgYPbs2dvbXLq0b3KZsHrwGPGjqNSpdxURV9VqlShChUqqpb58HHTt95sTDNnfqCdbbbUsWPHqEWLZhQ3fhzdu3dPVc3Dqn5Wt24Buj8VeYzL3WRex+U/mxXvxOJ38+o9c85fdoGB76qW+Vy7do369ulF33//b1WxDg8pEhKm0Ny5s1XFPKwKb81atbSniF44rBzaAQMGOsV47fXXG9K8+Qt1HX40aPAqtWnbTrXMZ8rkSXTkyBHVyp6MjAyKj59CqannVcUcrEoMPzW4a6vHEgg/MXhyqlevPqbsKj9OkyZNM8fAcbp0oXkoE9I/1G5HE22Nr75NTFysWjlzLT1deyOFmdbCrX7cPfPMs9qb3V1cXFTFetz1DgkJ1X45U3Af8vJqr61h53QWOjo6RjvZZFaLPv5IOzuul7VrvzHVlcTZ6qvWrl2bli5dod1qaC1+eodHRFLUe9GmHuNmpV07L5ozZ162A8y7uPwDAlXLfHiW+Lvv9H0VLD91v/ryC9M8fbM90ORrSL9Zu17bTWTpSZ/aL79MSxKXafuVgbT3EX29eg21bt1GVbJWx8ODEpcu105Zmdn2Hdvo1q1bqqWfHTu309WrV1RLthzf28xb8k6fPq3tbjl27CilpqZqe6B5XY4nZqpWq0a1atamRo0bk4eHZ46621nhc62dO/molr5ee+11Wr5ipU1ONvHtJIcOHqTNmzfR3r176Pz589rRS57E4z3SZcuVpWrVXtC627Vq1dbeZWR2ISF9tbPKeuPP35dfrbbZsqeRdH1jAgf2+LFjlHohlW5ljlUqVa6cOUZ+xrCbJqSG91G87e/smbN0Tl1v4+bmRu7u7na7ctYeeHmHd0rZ6l1Nn6z8VJv5l85mbwm0BzOEF0jbUOHr04G2bv1WVfTFy3V8C6h05l9cBTAphBdAKIQXQCiEF0AohBdAKIQXQCiEF0AohBdAKIQXQCiEF0AohBdAKIQXQCiEF0AohBdAKIQXQCiEF0AohBdAKIQXQCiEF0AohBdAKIQXQCiEF0AohBdAKIQXQCiEF0AohBdAKIQXQCiEF0AohBdAKIQXQCiEF0AohBdAKIQXQCiEF0AohBdAKIQXQCiEF0AohBdAKIQXQCiEF0AohBdAKIQXQCiEF0AohBdAKIQXQCiEF0AohBdAKIQXQCiEF0AohBdAKIQXQCiEF0AohBdAKIQXQCiEF0AohBdAKIQXQCiEF0AohBdAKIQXQCiEF0AohBdAKIQXQCiEF0AohBdAKIQXQCiEF0AohBdAKIQXQCiEF0AohBdAKIQXQCiEF0AohBdAKIQXQCiEF0AohBdAKIQXQCiEF0AohBdAKIQXQCiEF0AohBdAKIQXQCiEF0AohBdAKIQXQCiEF0AohBdAKIQXQCiEF0AohBdAKIQXQCiEF0AohBdAKIQXQCiEF0AohBdAKIQXQCiEF0AohBdAKIQXQCiEF0AohBdAKIQXQCiEF0AohBdAKIQXQCiEF0AohBdAKIQXQCiEF0AohBdAKIQXQCiEF0AohBdAKIQXQCiEF0AohBdAKIQXQCiEF0AohBdAKIQXQCiEF0AohBdAKIQXQCiEF0AohBdAKIQXQCiEF0AohBdAKIQXQCiEF0AohBdAKIQXQChThTdXrlzqT/rLnTu3Tf/7AaxlqvAWLFBQ/Ul/+fPnd6rwXrz4I+3etYu++upL2rBhPZ04cYJu3bqlfgqW4L/DPbt3a3+Hmzdvon//O1n9RB+57tzNeKD+LN7hw4epaZM36MED/f+V/Lp0pcmT41XLnO7cuUO7du2kTRs30uEjh+jHCz/SuXNntS8ud3d3qly5CtVv0ICaNGlKVar8j/qn9Hfv3j3y9elAW7d+qyr6mjd/IbVq1Vq19PXLL7/Q7t27aPu2bXTo0EE6cuQw3bx5k1xLlqQK5cvT889Xpfr1G1CLlu9QiRIl1D+VPaYK7/nz56j5283oypXLqqKPAgUK0JChwyg4uIeqmM+XX35BUxOmZH7YjqjK43GYQ0JCqXefvlS4cGFV1Y/E8PIDY/36dTR2zCg6fvy4qj5eCVdXCgwIov6hA6hgwez1GE3VbXZ1LUmenp6qpR+XzA/oa681VC3zGTd2DHUPDrIouOzu3bs0cWIctWndks6ePaOqzouDO2RwDL0bFGBRcNm19PTMntxEat2qBV29ekVVrWOq8Lq4uFCjRo1VSz+uJVypatWqqmUuo2JHUnz8ZNWyztGjR6lrFz86duyYqjgf/iIbNnQILVgwj3777TdVtRwP9bzbt6Nr166piuVMt1Tk1d6bSpVyUy199MnsHprRqlUrae7c2TmaI0hOPkmDBoZqH0Jnw3MECfFTaM6cWVpXP7t4MrBzZx/ti8AapgsvP30HDhqkWjnHY6NWrduolnncuHGDYkeO0D6AOXXgwAEK6dfb4i6jGXDQ4qdMpkmTJugyQbo/KYlWLF+mWpYxXXhZQEAQvfrqa6qVfVWrVsv8IoigIkWKqIp58AePlzL0cvLkSerW1Y8uXEhVFfPip2xMTDRNmTJJVfQxa9ZMSk9LU62smTK8vKFi0eJEatDgVVWxHi+LzJg5m1588UVVMQ/+gCxcOF+19MOz/e3attGCbFbcUxk0KIyWLF6kKvo5dep7Wr36a9XKminDywoVKkQrPllFo0aPsXo5w7dTZ1q7bgNVr15dVcxlX9I++vXXX1VLXzz7zF3ogwcPqop58HotT/AtW5pI9+/fV1V97dixXf0pa6YNL3vqqaeoe/eetG/fAfL27kDFixdXP/m7fPnyUY0aNejDjxZldocScryA7sh4fGVLPHkVNiDEVAHm4I4dMzrHE3xZOZfZezl9OkW1nsxUmzSehP/C9+7ZQ0n791FKSsofWx15/FKoYCHy8PSkunXrUunSZbS6mQ0cOMAm3b6/Klu2HK1c9Sm5uz+nKpZxtE0a3FWOiBhk9YRSdrzwwgs0dmwc1atfX1Uez2nCC//Vv38/Wr5sqWrZVvnyFWjxkqVWzR04Ung5uKGZf19ffPG5TZ+4D/H2yZGxo6hx4zdU5fFM3W2Gf5Y3b171J9vj2efgdwMpad8+VZGDl9PCwwfS559/ZkhwWb58ealY0WKq9WQIrxMqY/DQICXlVGZXPdTmY2098Y6nkSOH0ycrlquKMYoVK07PW7ibD+F1Qi/VqKH+ZBxePurdu6e2m8jR8cmgIUNiaPGij1XFOM+6u1u8OoLwOiHewMKnWox25swP1MHby6G3UvISWu9ePQx/4jKeRO3cuYtqZQ3hdUK8hfTdd4NVy1h8XDPAv6tDdqG5qxwU6E9r136jKsaqV68+VatWTbWyhvA6qb59Q6hixUqqZSyexAoL668t3TmKS5d+oqjIcNq0aaOqGCtPnjwUHR1j1dlehNdJ8Q60hKnTnrhxxZZ4DBwS0pe+27tXVYzD22cfdfnypczgRmjLQfbi7x+o7TWwBsLrxHjv9wczZmnf+vbAY+AuXToZPon16FIZ75wKDg6iNWtWq4rxOLRDhw1XLcshvE7urbeaUFzcRLsF+Pr169Subas/daFtfVPn0yWf1n7nAxqBAd20S+Ls5c0336JZs+Zk6yochBeos18XGjNmnLa/2x54oqhfvz60c+cOrc3BteVGkos/XdTGuKGhIbR9+zZVNR5/cY4dN17bhZYdeQYPGWr98xpMhcNSs1Yt7aI9fgplZGSonxjnxo3r2tO3Ro2amR/m8vTZp6ss3qBvLf733bJlM3399f+pivE869aladM+oAoVKqqK9bC3Gf5k4YL5NGzYEKuvZNFLuXLlaebM2TR6TKxDzUbrqY6HBy1ZsoyKFbNsG+TjILzwN3xelff0/v7776piLJ4B5/9t3ulkNm+88SbFJ0zV5fQawgt/w5vwV638RDs6aK8nsBm9/XZzih01mipVqqwqOYMJK/gbHhN6d+hIo0eP1cbBkHNNmzajcePjdAsuw5MXnojHwMOHD9Xllkln9frrDWn+gg+paNGiqqIPhBeyxJv0w8JC7TYGloyfuLwRRu/gMnSbIUvchU6YOt3QQ/xm0KZNW5o4abJNgssQXsgSj4Hbt/emiRMnYwxsIQ4uT07Z8k40dJvBKvxOnhHDh2EM/AT8vqy58xbY7In7EMILVluauIQiI8Oz9WIts+Mtjws//NiQraboNoPVOnX2o/iEaRgD/4WXV3ua/sFMw/aII7yQLfxBjY+fqp0LBtIu9ecrW428rB/dZsgRXkaKioow5VZGS7Vt247Gx000/GIDhBdybOUnK7S90LZ6/5Eja9GipXaJuz3OQ6PbDDnG68C8ESF//vyq4hw6+vhqb5K010UGCC/oomXLd2j2nHnZuhFCIv+AQBo5cpRd/30RXtBN8+YtaEr8VFO+jPxRfl260uDBQ+3+JkmMeUF3fAvjoIED6Oeff1YV8+CdZvwF5QhDBIQXbGLDhvXUPTiIbt++rSry8fo2X9Znr7u+/grdZrCJhzuNzLIOHBAYRLGxox0muAzhBZvhPb68jGLrPb621s0/QHubgaON5RFesCm+l3jylIQcX7ZmLx06+mizyvZ6s8STYMwLhli/fh317BEsaieWj28nSkiYph2JdER48oIhmjRpql0FI2UdODi4hzY55ajBZQgvGKZx4zdowcKPHH4dmIP7XvT7Dn/xAMILhuJ7i6dO+8Ahx5CMX/0yeMhQERtNMOYFu9i4cQP17dNLe0+Ro+jazZ8mTJjk0F3lRyG8YDdJ+/aRr28H7TWb9sYvG48ZPMRuhwyyA+EFu+J383p5tdFet2kP/JQND4+kfiH9xV2uh/CC3R09epS6dfWjCxdSVcUYHFaeUeYjjZKeuA8hvOAQTp36noIC/Sk5OVlVbItPBM2cNUebAZcKs83gENzdn6O16zZSRGQUubi4qKptNGv2Nm3ctEV0cBmevOBwbty4QaNHx9IXn39G169fV9Wce+mllyg8IooaNmxkisvjEV5wWAcPHtTekM/ngy9d+onu37+vfmKZ3LlzU8mST1Pp0m7k4VGXwgYOJDe30uqn8iG84PBSUk7R55lP4f1JSZlj41OUnp5GGRkZ2nuEebaYf+dfPOnER/ZcXUtStWrV6H8zn7R16nhkBtfToY7y6QXhBVE4pGlpVzOfxJfp/PlzdOXyZS3AZcuVo2effZbKlCnrNO9TQngBhMJsM4BQCC+AUAgvgFAIL4BQCC+AUAgvgFAIL4BQCC+AUAgvgEhE/w+MnDuAjKGt+AAAAABJRU5ErkJggg==;" parent="1" vertex="1">
                    <mxGeometry x="343.67" y="561.25" width="26.33" height="31.5" as="geometry"/>
                </mxCell>
                <mxCell id="15" value="（ソートで設定した条件）" style="text;html=1;strokeColor=none;fillColor=none;align=center;verticalAlign=middle;whiteSpace=wrap;rounded=0;" parent="1" vertex="1">
                    <mxGeometry x="395" y="562" width="150" height="30" as="geometry"/>
                </mxCell>
                <mxCell id="16" value="Title, Current Chapter, Score, Complited" style="swimlane;fontStyle=0;childLayout=stackLayout;horizontal=1;startSize=26;horizontalStack=0;resizeParent=1;resizeParentMax=0;resizeLast=0;collapsible=1;marginBottom=0;align=center;fontSize=14;" parent="1" vertex="1">
                    <mxGeometry x="340" y="612" width="360.67" height="240" as="geometry"/>
                </mxCell>
                <mxCell id="17" value="XXXX            54                      ★★★☆☆（3.2）             ✔" style="text;strokeColor=none;fillColor=none;spacingLeft=4;spacingRight=4;overflow=hidden;rotatable=0;points=[[0,0.5],[1,0.5]];portConstraint=eastwest;fontSize=12;" parent="16" vertex="1">
                    <mxGeometry y="26" width="360.67" height="30" as="geometry"/>
                </mxCell>
                <mxCell id="18" value="XXXX            54                      ★★★☆☆（3.2）             ✔" style="text;strokeColor=none;fillColor=none;spacingLeft=4;spacingRight=4;overflow=hidden;rotatable=0;points=[[0,0.5],[1,0.5]];portConstraint=eastwest;fontSize=12;" parent="16" vertex="1">
                    <mxGeometry y="56" width="360.67" height="30" as="geometry"/>
                </mxCell>
                <mxCell id="19" value="XXXX            54                      ★★★☆☆（3.2）             ✔" style="text;strokeColor=none;fillColor=none;spacingLeft=4;spacingRight=4;overflow=hidden;rotatable=0;points=[[0,0.5],[1,0.5]];portConstraint=eastwest;fontSize=12;" parent="16" vertex="1">
                    <mxGeometry y="86" width="360.67" height="30" as="geometry"/>
                </mxCell>
                <mxCell id="20" value="" style="rounded=0;whiteSpace=wrap;html=1;fillColor=none;" parent="16" vertex="1">
                    <mxGeometry y="116" width="360.67" height="124" as="geometry"/>
                </mxCell>
                <mxCell id="21" value="Log out" style="rounded=1;fillColor=#0057D8;strokeColor=none;html=1;fontColor=#ffffff;align=center;verticalAlign=middle;fontStyle=0;fontSize=12;sketch=0;" parent="1" vertex="1">
                    <mxGeometry x="614" y="457" width="86" height="33" as="geometry"/>
                </mxCell>
                <mxCell id="22" value="" style="shape=image;verticalLabelPosition=bottom;labelBackgroundColor=default;verticalAlign=top;aspect=fixed;imageAspect=0;image=data:image/png,iVBORw0KGgoAAAANSUhEUgAAAPYAAAC0CAYAAACngtGvAAAAAXNSR0IArs4c6QAAAARnQU1BAACxjwv8YQUAAAAJcEhZcwAADsMAAA7DAcdvqGQAABOGSURBVHhe7d0HdBXV1gfwDaSQShoJCQQSiJRAqEpPEBUIAkGl+CzUEPUhUvSpdPTxFBAUUB4IKsWCBaWErj4goFITOoQqVVTSSEilvez5Nt9y+XmZW2buXOb7/9ZiMXsnutDFP+fMmTPnVigpvX6LAMBUKsrvAGAiCDaACSHYACaEYAOYEIINYEK6rYrfvHmTfv/9N8rKyqbcnBwqLimmsLBqFBISTFWrhpKHh4d8JwBoTdNgX7r0C23bto1SV62k/fv3U2FhId24cUMJOatUqRK5ubmRn58f1a1blzp37kId7r+fYmLuUb4OANrQJNglJSWUmrqKZs18mw4ePEjXrl2Tr6irV68+devWnUaOGkWhoWHSBQBHOBzsJYsX0bjxYynr8mXp2Mfb25tGjnyR/vHyK8o1ANjP7mDn5ubSq6++TB8vWSwdx1WoUIFat2lDCxcupujo2tIFAFvZFWxeFEsZkkwbN26QjrYiI2vS0qVf0H0tW0rHteTn51NxcdH/rh0A2IsHM157cnf3oICAAOk6zuZg82JYh4R2tGfPHunog1fOV6xMpXvvvVc6xuEAHzuWSWfPnqWTJ0/Q2TNnqeBqAWVnZSkLhAD2qlixIoWEhJB/lSoUWv53/p66dal2+Wy1Xv365O/vL99lO5uCXVxcTIMG9qeVK1dIR19BwcGUnr6XwsMjpONct27dolmz3qH33n2XfvnlonT/B/+k5a8D6MHX15e6d+9B78ycTUFBQdK1nk0bVN6eMd1poWY52dk0dsxoqZzr118vUXLyIJowftz/CTVDqEFPV69epS+++Jz69u1FO7Zvl671rB6xf/75dPkUPF65v3Ymvv84dfoMVasWLh39HT9+jJIHD6Tdu3dLB8A4vOY0Zeo06t27j3TUWT1iL5g/3+mhZnxPP2nSRLp+/bp09MWr/d27PYxQg8s4f/4c9Xv6Sdq9a5d01FkV7LKyMlqyZJFUzrd+3To6dOiQVPqaNGkCnTt3VioA18C3fqNGDaeioiLp3JlVweZQ5eTkSOV8PFP4/vtvpdJPWtoWTZ/LA2iJn0RZO8CqBpt/UmzZskkq42zepO+fgX9wDXt+qLI9FsBV8WLypk3/kcoy1WDzZoxdO3dKZZzs7CxdN4Rs3ZpGJ04clwrANfEj588/XyqVZarBLijIp8zMTKmMU1xcovyQ0QtvQAG4Gxw5rL7epBpsfp7Gz3SNxm+M5eXlSqW97KxsuQJwbbm5eXJlmRUj9lUl3EbjYF++nCWV9krLSuUKwLXxI2C11XHVYFeuXJnc3d2lMg5v4fTx8ZFKe74+vnIF4No4k2qvNqsG28fHm6pU0e6tE3vxDrSAgCpSaS+yZqRcAbi2sDD1A0lUg82b0WvXMf7daD4jTc8fMA1jG8kVgGtrEBsrV5apBjsoKJjuu9f496KDgoN0nYpHVI9QpjgArq5hbEO5skw12Hz4IB84aLTWrdrIlT5q1Iikhx7qJBWAa2rUqBHd37GjVJapBpu1bt3G0OOCeaTu+vDDUunD09OTXnrpZWWRDsBVPfHkU1S3bj2pLLMq2Pyid69evaVyvjZt2lKTJk2l0k+btm1p+oy3pQJwLU/3608vvDBCqjuz+n1s3oDe7eEudOXKFek4B4+gP23fRc2aNZOO/mbOfJvGjH5VKgDjxSck0OrV66xeB7JqxGZ89lhSz0ekcp5OnTo7NdSMj0HmkRufVgKuICmpJ61YkWrT4q5NZ57xUUVJSd10P8jwNi8vL9q+YxfVr99AOs7FZ6WnpCTT+vXrpAPgPLVqRdEHH35ECQkdpGM9m08pvXjxAjVtEkcFBQXS0Qfvdps1611KHpIiHWPwa6t8MunXXy+jI4cP05Ejh+n06dPKWzYAWuHTSvkIpJiYGIqLa0ydu3Sh+PgEu3d92hxs9sGC+TR69Cu6Hr37z8n/oldeMeYgQ0t4v/rRo0eVoPMHDfKeXQBH8BoS76rk44cjwiMouna0Jqfy2hVsxsfyvv7aJF1GruHDR9Jb02dIBQC2sjvYbPPmTTQkebAyPdcCL1bNmTOX+g8YKB0AsIfVq+J/pWPHB2jrth+UZ9yObMfk+4vmzZvTsq+XI9QAGnBoxP6j5cu/offnzaU9e3Yr54apHWPE9xa8XTUqKpoGDhpEQ4cOU1bBAcBxmgX7Nn5ElLE3gzIy0unokSN05uyZ8l4WlZaWUtWqIcqebP5M7GblIzSP0hxsbOME0Jbmwb6NR2xeWCstH72LS4qVA//55XAvL/7lpawEAoA+dAs2ABjHocUzAHBNCDaACSHYACaEYAOYEIINYEIINoAJIdgAJoRgA5gQgg1gQgg2gAkh2AAmhGADmBCCDWBCCDaACSHYACaEYAOYEIINYEIINoAJIdgAJoRgA5gQgg1gQgg2gAkh2AAmhGADmBCCDWBCCDaACSHYACaEYAOYEIINYEIINoAJIdgAJoRgA5iQ5h98f+vWLTp+/Bil79lDe/fupaysy+W/sqiwqJDCq4VTaGgY1YmpQ61bt6XY2Fjy9vaWfxIAtKJZsAsLC2n/vn20eMki2rF9O504cVwJuSWRkTWpWbNmlJTUk7r3SKKAgAD5CgA4yuFgc3iXLfuKZr4zQxmh7VGzZi0aPmIEpaQ8S56entIFAHs5FOzDhw/TsGF/p+0//SQdx9SpE0OzZr9LnTp1lg4A2MPuxbPU1FX0xN/6ahZqdurUSer39JO08KMP6caNG9IFAFvZNWJ/+eUXNGL4MMrLy5OOtipUqEBTpk6j4cNHUsWKrrFwz7cc/MOmrKyMSkpK6Nq1sjuuIQDYwt3NnTzKb0P5VtTd3V3JgCNsDvbGjRvosUd76j6iurm50dRpb5VP9YdLxxjXr1+nlStX0Pr165TV/rNnzpb/QMstD/Y1+Q4Ax1WqVIm8vLwoIqI6xcTEUMcHHqBevXpTeHiEfIdtbAr2oUOHqHevR+nMmZ+loy9/f3/68quvqWPHB6TjXHxrkJKSTDt37MCtATgVz1T9/Pxo7rz5SsBtZVOwhwwZTJ9+8rFUzsGPxfbtP0g+Pj7ScY7MzKPUp3cv5bEdgFE44LNnv0cpzzwrHetYfQO7dWsarVj+jVTOc/78Ofqq/J7emRYt/IhaNG+KUIPhbt68SS+88Hz5LelQ6VjH6mDPf3+esgnFCLwCn5+fL5W+fvrxR5owcTym3uBSPvxgAS397FOp1Fk1FedV4KhaNXRbBVfDCwubNqVRq9atpaOP0tJSatumpfJ8HsDVcA42bPiO4hMSpGOZVSP2li2bDQs149Fz2w9bpdLPvHn/RqjBZXEO/jn5NSoqKpKOZarB5sc6q1enSmWctWvXyJU+cnJyaPGiRVIBuKaDBw4o611qVIPNz2y3bdV/tFTz26+/6TpruHjxIh07likVgGviDPDjVzWqwc7OzqYLF85LZRy+/7106ReptMebT7CTDO4GBw8ekCvLVINdkF+gbKM0Gm+x4z+LXjLS0+UKwLWdPn1KrixTDXYlNze5MhYvHOg5ohYXF8sVgGsrK7um+jhWNdi3N6UbjZf6ff38pNIeTnKBu4Wnp4eShztRDbaXV2Xy968ilXEqV65MISHBUmmvRmQNuQJwbXy8mBrVYPMe7ajoKKmMw7MGPz9/qbTXOK6JXAG4tri4xnJlmWqwAwODqHmzFlIZJzQ0VNfpcoPYWOVwRQBXxmcDJnbtKpVlqsH28PCghA4dpDJOo0ZxcqWPwMBAGj1mnFQArikxsatVrzGrBpslxKvvTdUTL+B1SUyUSj99+z5OCQnG/xAD+CtBwcHKyULWnK5iVbCDQ0Koe/ceUjlf+/bx1LJlK6n0NWbsOOUkCwBXM3HiJKtPVLEq2GzsuAlWrcbpYfiIkU47d5ynOUOHDpMKwDW0j4+n5OQUqdRZHezmzZtTnz59pXIenhp36aL/NPyP3nhzCi1cuBgfYgCG4zWuUaNeojVr1tu0n8Smo5F+++1X6t37Mdq9a5d09BUdXZvWb9hIUVHR0nEuPr1lypQ3lRfc+Z10AGfiQW36jHeoSRPbH8XafEopvwF1f4d4ys3NlY4+qlULp/fm/Jt69EiSjjH45RN+R3tvRjplZmbSxYsXnHaaC/z/wTvJeM9IjRqRymYpfgrUtGkzCgoKku+wjc3BZvxRPt26JVJOdrZ0tMWLV/MXfKisUrsyvA0GWnH0HPE/syvYjF/lTB48iNLStkhHG3wq6ZIln1Dbdu2kAwC2snrx7M94yrB06Rc0cNBg8vX1la5jnnjiSUpdvQahBnCQ3SP2bXx0En86yLRpU+xeVOMPBpg8+Q3q138A3rIC0IDDwb6Nzz9esOB9Sl21ivbt30e5OTl3vAflhYIGDRpQn/L76AEDBuHREoCGNAv2bfxZV3z+eG5uDl04f4Fyyn8vyM9XRvaAwEBlCh8WFko+3j7K+9X8nA4AtKV5sAHAeHYvngGA60KwAUwIwQYwIQQbwIQQbAATQrABTAjBBjAhBBvAhBBsABNCsAFMCMEGMCEEG8CEEGwAE0KwAUwIwQYwIQQbwIQQbAATQrABTAjBBjAhBBvAhBBsABNCsAFMCMEGMCEEG8CEEGwAE0KwAUwIwQYwIQQbwIQQbAATQrABTAjBBjAhBBvAhBBsABOqUFJ6/ZZca6K4uJjOnz9Hhw4dovQ9e6iwsJBKy0rpxo0b5O3lTVVDq1J0VDQ1iG1ItWvXpipVqsg/CQBa0SzYV69epXXr1tKqlSto7do1VFJSIl/5a76+vtSyZSvq2/dxSkrqSUHBwfIVAHCUw8EuKCig+fPn0axZMynr8mXp2oZH7UGDkmnEyJEUHh4hXQCwl0PBzsjIoJEjX1Cm3DzVdlTTpk1p9Jhx9Mgjj0oHAOxhd7BXr06lF0eNVO6ntcSj9xtvTKFBg5OpUqVK0gUAW9gV7I+XLKZnnhkilT5efPEfNPlfb7hcuK9du0ZZWZeprKyMbt3SZHkCgLy8vCggIJA8PT2l4xibg71q1Up6vG9vqfTj4eFBr7w6msaPnygdY1y4cJ7WrFlNW9PSKDPzKOXlXaHr169jNgGaq1ixIvn4+FBkZCS1atWaunXvQS1atJCv2samYPM9da/HHqFLl36Rjr4CAwNp0eKPKTGxq3Sch9cMvv12I02d+ibt3LFDugDOExFRncaOHUd9H/8b+fv7S9c6Vgf75s2b1LdPL2X0cqY6dWJo/4FD5ObmJh398bP41yZNpLlz5yhTbwAjde7chWbOmq1kwVpW7zz7/vvvaMuWzVI5z6lTJ+nTTz6WSn88UvOsZPbsmQg1uASeOcbHt6Nz585KR53VwV740YfKJhQjfPrZJ5SdlSWVvqZPn0abN2+SCsA15GRn04Tx45T1HWtYNRXnaXj1iDDKzc2VjnPxQtXyFauoS5dE6ejj5MkT1LZNK8rPz5cOgGtZu24DPfjgQ1JZZtWIzVtFjQo14+nxls363gbw46vnh/4doQaX9kzKEDpw4IBUlqkGm4f+H3/4QSrjHD58SK708eOPP1Ba2hapAFzTxYsX6POln0llmWqweS94Rka6VMbhR2x6Lmalp++RKwDXtn3HT3JlmWqwCwuv0okTJ6QyTmFhEV3Jy5NKewX5BXIF4Nou/67+spVqsHklPD//ilTG4dE6JzdHKu3xzATgbsBrTqWlpVL9NdVg37x5S1kVNxr/GUpLy6TSHm/nA7gbcBbUNmyp/m12d3ejyl5eUhmHg+fp6SGV9oKCg+QKwLVVrlxZ9V0F1WDzSSdRtWpJZRz+jwkLqyaV9po0aSpXAK6tcePGcmWZarD9/atQTMw9UhnH399P1/PRatasRRUqVJAKwHU1bNRIrixTDTa/RnbvffdJZZy6devJlT5q1qxJjaz4HwZgpJCqVSm+fYJUllm1YtSx44NyZQweSfkNFz3xbGDo0GFSAbimFs1bUKvWraWyzKpgx8XFKb+Mcs89daltu3ZS6YePY9J7PzqAvXiNadbsd8nd3V06llkVbJaS8qxhp4YMGDiQatWKkkpfb02fgSk5uBxvb29avWYdRUfXls6dWR3sp/v1p4YNG0rlPEFBQTSg/0Cp9FevXn2aPXuOTS+1A+jJz8+P5syZa9Vq+G1WB5t/YkyZ+pbTR+3XX5+sLBg4U7v27Wn3ngx67rmhytlrAEZ56KFOtH3HLnryqaelYx2bzjzjUzmnTZuiHBvkDD16JNGyr5dL5Xz838uHN3726SeUnp5O2dlZqlv5ABzBC8WB5bPUuEZxlNSzJz31VD8KCAiQr1rP5lNKi4qKKDGxE+3auVM6+oiNjaWvln3jEs/QGR9ouG/fXtq1excdPXKY8vMLXGKrLdzdePDg9yACAqpQVFQ0NW3aTFn1jo9PUDZl2cvmYLOjR49Q716PKeeR6YF3u/GJKQkJHaQDALaw+h77jxo0iKXU1WuUqbLW+N/9n01pCDWAA+wKNuNV4/ffX0DPPPucsjvNUXxvwZ+6uXzFSmrSpIl0AcAedk3F/+y7776l8ePG0P79+6Vjm+rVa9CECRNp4KDB0gEAR2gSbMaH7PP5x3z+OC8yZR49avHwAh6deXEsLq6xstMrsevDyqd+AIA2NAv2bbxSzAeuXTh/gS79eokK8vMp70oeFRYWUlhomPIB91VDqlJ4RLiyRY4XygBAW5oHGwCMRvRfS5rSaiGzcewAAAAASUVORK5CYII=;" parent="1" vertex="1">
                    <mxGeometry x="410.86" y="882" width="47.83" height="35" as="geometry"/>
                </mxCell>
                <mxCell id="23" style="edgeStyle=orthogonalEdgeStyle;curved=1;html=1;exitX=1;exitY=0.5;exitDx=0;exitDy=0;fontSize=12;endArrow=open;endFill=0;" parent="1" source="24" target="50" edge="1">
                    <mxGeometry relative="1" as="geometry"/>
                </mxCell>
                <mxCell id="24" value="" style="shape=image;verticalLabelPosition=bottom;labelBackgroundColor=default;verticalAlign=top;aspect=fixed;imageAspect=0;image=data:image/png,iVBORw0KGgoAAAANSUhEUgAAASIAAAEgCAYAAAAQdn69AAAAAXNSR0IArs4c6QAAAARnQU1BAACxjwv8YQUAAAAJcEhZcwAADsMAAA7DAcdvqGQAAC8QSURBVHhe7d0HdBXF+zfwRykCQiCBIL0qvUOAJCBVAtJVxNB774IKqBRFlCYQQu8dsdEkdAIkdEIQQi/Sa0KTjv7znXc4L8cfF+7dnb27e+/zOYfDzgQ4mrvzzezslNcePHzyLzHGmIlel78zxphpOIgYY6bjIGKMmY6DiDFmOg4ixpjpOIgYY6bjIGKMmY7nEbFX+vfff+mff/4Rv54+fSp+/6/XX3+dkiRJIn7Hr9dee01+hbFX4yDyUvfv36ebNxPo6tVrdPHiBTpz5jRdvXKV4hPiKSE+8VdCAt28dZNu37pNd+7coUePH9GTx4/pyZMnDoMoadKklDRZMkqeLDmlSZOGfHzSUNq06cjPz498E3/5+fqRf0Z/ypUrN2XNmo0yJl6nS+dLKVOmlP8K81YcRB7swYMHdP78OTp27BjFxR2io0eP0qlTJ+n8ufN0/fo1unfvnujtmAW9plSpUlGGDP6ULXs2ypMnL+XPn58KFSpM+fLlo2zZslOKFCnkn2aejIPIQ6DXcjgujvbF7KVdu3ZR7P4YOnv2rKi3q9SpU1POnDmpeImSVLZsWSpVsjQVLFRI9LaYZ+Egsin0dPbs2UNbIiNp+/Yo0dtBD8fT4TGuQIECFBgYTO9WqkRlypQRPSdmbxxENnH92jXaum0rrV27hiI3b6bTp0+Z+lhlFXi8y507jwilkJCaVLFCRcrg7y+/yuyCg8jCTpw4TsuXL6PffvuVDsTG0sOHD+VXmCNvvPEGFStenBo0aEj16tWnd97JJ7/CrIyDyELQw4lNDJyfl/4kAuj48WPc69EpX778IpA+/KgRlShRgqcVWBQHkQUcPhxHC+bPFz2fkydPyFqmWt68b4ueUrPmzalgwUKyllkBB5FJbly/Tkt+Wkzz5s6hmJgYWcvcpWTJkomB1II+aRxK6TNkkLXMLBxEboTHrOioKJoyZZJ49MI8H2YuzFOqW7cederUhYKCg/nRzSQcRG6AuTyLFy2kiRPDxWMYsyY8rnXp0pUafxJKPj4+spa5AweRgfCKfdzYsbR48UK6efOmrGVWly5dOhFGvXr1FlMDmPE4iAywb98+GvHDcFqxYrlYJMrsCYt48dj22ef9qVSpUrKWGYGDSCGM/wwfPozWrVsra5inqF79PerffyAFV6gga5hKHEQKbNy4QQTQ1i1bZA3zVBUqVqQBA76kqlWryRqmAgeRDugBDR06mDZv3iRrmLeoXLkKffXVIO4hKcJBpMGhQ4foy4H9afXqP2QN81Y1a9aib4cNpyJFisgapgUHkQuw8PSbb4fS9GlTPWYQGpuZYVsNbFCGTcsyZ8pMmTNnoUyZM4mNzLAVR4qUKcnX1zfxOo2Yd4NB3P/C9wPzou7cuS3eED64f5/u3r0rNlq7fOkyXbp0kS5dvpT4PbxOCYl1mNKATdY8ATaFa9+hI3315de84FYjDiInoMFMmhROw779xrav4dOmTUvZs2enAgUKUuHEn97YfAxLHjJnykQ+iV9LliyZ/JPGe/z4Md2+dSsxmC6LJS3YtO3QwYN05MhhOnfuHN1K/Jod4bX/gIFfUpcu3UTAM+dxEL0Ctt3o1/dTOnr0iKyxPixZKF6sOJUvH0hlAgLEYwN6Oe4MG60QUug9HUwMpj27d9OOHdsp9kCsWBJjF1hoO3LUaLEtCXMOB5EDV65cpi8+/4wWLVooa6wLIRMcHCxu/LLlyoktV+0QOs5COGGL2107d9KaNREUFRUlwsrqQkOb0Pc/jKC33soka5gjHEQvMHvWTBow4AuKj4+XNdaC5QfBwRUopGZN8fYGe+68aNzGU2E8Cluk4G3lmogIio6OsuzjHA4OGDZsOLVu01bWsBfhIHrOsWNHqWeP7rRp00ZZYx2ZMmWmmrVqUcOGH1BQUDDv2/wcDIojjH799ReKWL2aLl++JL9iHfiBMW58GOXPX0DWsOdxECXCqvjx48fSoK+/stSKePw0rd+gIbVo3pICypblAVAn4MXC7l27aO68ObTs998s1avF7pFDv/mWevToxav8/8Prg+jcubPUoX07y/SCkidPLmbttmrdhmrUCBHH7TBtcHYbxpTwqI3Z748ePZJfMVeVKlVp6rTplD17DlnDvDqIFsyfR71796Tbt2/LGvNgnKdN27bUtGkzypjxLVnLVLl69QotXLiAZkyfLsaXzIZxvjFjxorN2ZiXBhHGFBBA2B3RbPjp2Kt3H9H74e668fAYjikZY38cY4lecNNmzWncuDAxcdSbeV0QYYuOli2amfpTEY9boU2aUvfuPcQEQ2YOTKAMCxtPixJ7SmaeCYfe8Jy58716qxGvCiL0gLp162LasTwYfMasW+wC6Jc+vaxlZou/cUPsnjlx4gTTBrcxkD1hwkRq3qKlrPEuXhFECJ6+ffvQtKlTZI17Yf0Rdvvr0KETb0FqYRgrnDp1Mo0d+6NYV2iGdu070OjRP4pg8iYeH0QXLpyn0NDGYlauu2F9F8Z/unbtzgFkI1iQGx4eJsaRzFhbiKkaixYt8aqjtD06iHbv3k1NEkMIr+jdCT/NMFekz6d9xap1Zk8JCQk0ZvQoMcfM3Y/zeLW/MDGMAgICZI1n89gg+umnJdSxQzsxl8Rd8NarUaOPacjQb3jTdQ+CQxAGD/pa3FPuPHk3ZcqUNGXqdPr448ayxnO9Ln/3KGPHjhFvxtwZQuXKl6ctW6Np7rwFHEIeBp8n3mrh8y0fGChrjYf7F/fxmDGjZI3n8qgeEX5afdavL4WFjZM1xsNA9LBvv6MWLVvxPCAvgHts7pzZNPDLAW4d0O7WrYfYWsRT7zGPCSI8w7dp3ZJ++eVnWWM8hM/w777nI4u9EPZHGjCwP82ZPUvWGO+DDz6kWbPneuQbNY8IIrx2/ejDhrRlS6SsMRb2+xkfNkEcMcO824YN66lH925ip0l3ePfdSvTzL7953FtY248R4SdT7do13RJC6BZjQuKevTEcQkyoVq26uB9wX7jjsQn3Oe53O+1Y6Qxb94iw70z9enUoNjZW1hgHA5YTJ00Wa8MYexGsXevapbPYTdJoxYoVo2XLV4rdOT2BbXtE2Cq0ZkgNt4RQy1ataeeuPRxC7KVwf+zYuVts4WK0AwcOiPv/4sULssbebNkjwjf//Vo1xaJFI2EXxLFjx4sV0oy5YuGC+dSzZ3cxS9tI2PFxdcQaypIlq6yxJ9sFER7H8JPA6BBC13fmrLl8cB7TDCeRtGndQvRejIQdHCLWrBXbCduVrR7NMEBXr25tw0MIK6Ajt0RxCDFdcP/gPsI0DyOhPaBdmLVQVwXbBBFOaWjQsJ6hP11wYucPI0bStGkzxPR6xvTCfTR16nQxGRH3l1HQLho0qGvbA0Bt8WiGyYp4Zblt61ZZox5mSM+ePZdfyzPDYN/sFi2aGdpzCa5QgVatihBHg9uJ5XtE//zzD7Vq2dzQECpatCht3RrFIcQMhUMRcJ/hfjNK1LZtYn0a2o2dWD6IPu3Tm3777VdZUg8T0tat38QLVZlb4D7D/Yb7zijLlv0u2o2dWDqIRo8eSZMmhcuSengt//uyFZQuXTpZw5jxcL/hvjPyBA+0G7Qfu7DsGBHOnG/dyrgP6tNP+9Gw74bLEmPm+HLgABo1aoQsqYdFsjiD3+osGUQ7tm+nkJDqhu2K9+2w76hv389kiTFzIYgQSEbASv2IiHUUGBQka6zJckF05cplCg4KpPPnz8kadbAoMSwsXGxQzpiVTJ82lbp372rIDpBZs2ajqOjtlp7waKkxIpxb3qJ5M0NCCHCQHYcQsyLcl7g/jVjBjwMk0K7QvqzKUkHUr++nFBm5WZbUQk+oQ8dOssSY9eD+xH1qBGwfgvZlVZYJopkzphv2hmzMj2OpfYeOssSYdaFn9ONYY7Y6RvtCO7MiS4wR7d+/nypXqkAPHjyQNeqMHvOjOFeMMTtBaPTu1VOW1MGM682R26hEiRKyxhpM7xFhmwS8pjcihL4b/j2HELOlzp27ivtXNbQztDdsr2wlpgdRv36f0uHDcbKkTr9+n1OfPn1liTH7wf2L+1g1tDe0Oysx9dFs6dKfqHkz9ZOtsO0CVjwz5gk6dmxvyGkhOKutceNPZMlcpgXRmTOnqVzZMmJ7D5Xee68G/fb7ckqaNKmsYcze8Nr9g4b1ae3aNbJGjbRp04qtba2wztKURzNM2urSuZPyECpUqBDNm7+QQ4h5FNzPuK8LFy4sa9RA++vcqaNbj9F2xJQgwpHQ2JtFJT8/P1q8ZCkvYGUeCb0X3N+4z1XavHmTaI9mc/uj2dGjR6h8uQCl59LjJ8aKlX/wKRvM4+HIorp13lc6Sxq7SOIRDRvxm8WtPSJ0AXv26K40hGDEyFEcQswr4D7H/a4S2iPapZmPaG4NosmTJ4quoEqt27QVp2wy5i1wv7dt116W1EC7nDhxgiy5n9sezbCQtVTJ4konUpUqVYo2btpiu/15GdMLExOrV6tMe/bskTX64Ry/fTGxlD17DlnjPm7rEWHBncoQSpUqFc2cNYdDiHkl3PczZs6mN998U9boh1UOZi2MdUsQrVkToXzf6R9/HCcOlmPMW2FwGe1Apd9//40iIlbLkvsY/mj26NEjCiwfQIcOHZI1+jVp2oxmJv40YIwRtWnTShxxrQrm4+3YuYeSJ08ua4xneI8oLGyc0hDC8yvOo2eM/T9oDyrHdeLi4kS7dSdDe0RXr16hokUKKZ1BvXzFKqpRI0SWGGOA5R84dloVTKD882AcZcz4lqwxlqE9ou+HD1caQtgagUOIsf+FdqFyyxu0W7RfdzGsR4StBsqULklPnz6VNfrkzfs27dq9V+lbAsY8yb1796hsQGk6ceK4rNEnSZIktHtPjBgzMpphPSIcj6IqhADbvXIIMeYYprSo3GYW7ffLgf1lyViGBNHOHTto1aqVsqQfTmQNCakpS4wxR7ANTvMWLWVJvz/+WEXbo6NlyTiGPJrVfr8mbdiwXpb0wWrj2AMHyd8/o6xhjL3M9WvXqFixwhQfHy9r9MH6ttURa2XJGMp7RDgOSFUIwbBhwzmEGHNBBn9/0W5UwYp/1WtE/0t5jyikRnVlZ5PhmNyNGyMNOXSOMU+GlfRVq1ZS9lhV8d13ad26jbKkntIgio6KEv/zKiB8IiO3Udly5WQNswIsXo7cvJl27topFl5izVPZgLJUuUoVypYtu/xTzAp27dxJlSpVULa9BzoFQcHBsqSW0iDChCpV++o2a96Cpk+fKUvMbJcuXaRP+/Sm5cuXvXBTLrzqrVevvni7mTlzFlnLzNauXRuaP2+uLOmDuUqYUGwEZUG0b98+CgosK0v6YMc4zOrkn7DWgO5948aNxEz5V8FM3CVLlorHamY+9GCLFS0s5hipEL19l9h+RzVlg9UjflA3OIaNnziErOHPP/9M7OnUdiqEAH8Of/7AgQOyhpkJ7UjljGuV7fx5SnpEZ8/+RQUL5FMygRGb38cdPqZ8k3Dmun/++YferRikafOt0qVL05at0eKRjZkrISGBChXMJ37XC59n3OGjlDNnLlmjhpIe0aSJE5XNou7WvQeHkEUsmD9P8w6Ae/fuFX+fmc/X15e691Bzjj7aOdq7arp7RHfv3qV87+RRMnkqfYYMdOjQET4SyCL0vnyoXv09WrnK/Ztssf+FRayFCuWnG9evyxrtEGzHjp8SW8uqortHhA2ZVM3g7NWrN4eQRTx+/Jj27NW3H/K+fXvFv8PMh2090L5UwCPeggVqe7u6ekSYn1CyRDE6cuSwrNEOKXv02Eny8fGRNcxMuNmyZ8us6/wsnDd39txFftS2COwZnz9fXiVjRdimdn/sn8omG+vqEWECo4oQArwp4xCyjsePH4nBaj0wnoB/h1kD2peqo7dwUOq2rVtlST9dQYRzylTA9h5du/LZZIwZDe1M1XY6qto/aA4irPBdsWK5LOkT2qQp+aVPL0uMMaOgnaG9qbBy5QqRAypoDqJFixeKtUYqdOumbsIVY+zl0N5UjO08fPhQ5IAKmoNI1fqVqlWr8flkjLkR2hvanQqqckBTEB08eJBiY2NlSZ9evfvIK8aYu/Tuo+ZEV+QA8kAvTUGkasbsO+/kE1tbMsbcq1q16pQvX35Z0kdFHrgcRHilq+r46BYtW/KmZ4yZAO2uZatWsqQP8kDvVA+XgygmJobOnDktS9rhONumTZvJEmPM3Zo0aUpvvPGGLGmHPEAu6OFyEC39aYm80gddwyxZssoSY8zdsIEd1gOqoDcXXAoiLOlQNXeoVes28ooxZhZV7RC5oGdLWpeCCNO6T548IUvaYZU9Hx3NmPnwsgjtUS/kwuHD2pd7uRREOGxNhTp16ortYBlj5sLhB2iPKqxerT0fXAoiVY9lGCRjjFmDqvaoJx+cDiLsObRv715Z0g6HvwUG8sbqjFkF2iPapV4x+/ZR/I0bsuQap4No166dYm2JXjVr1hKv7hlj1oD2iHapF/IB591p4XQQrV2j5ryyRo0+lleMMatQ1S615oTTQbR5s/7jZrEPSnBwBVlijFkF2mXq1KllSTuck6+FU0F05cplOnr0qCxpV65ceSX/s4wxtdAuy5cPlCXtjh8/JvLCVU4FUXR0tJLjgurXbyCvGGNWgyPD9UJOIC9c5VQQrV+/Tl7pU/09NdPJGWPqvVdDzU4YWvLCqSDasd31hPsvHH2bJ09eWWKMWU2uXLkpR46csqSdlrx4ZRDhCJJTp07JknbBwcG85QdjFob2iXaqF/ICueGKVwbRiRMn6P79+7KknaqtKRljxlHRTpEXyA1XvDKIYvbpn00NQQqSljFmLFXt1NXceGUQ7dq9S15p5++fkXLnziNLjDGrwjjRW29lkiXtXM2NVwbR/ph98kq7ggULiuOHGWPWliRJEtFe9XI1N14aRDi37MyZM7KkXZkyAfKKMWZ1KtorcsOVcw9fGkSXL19yefT7RcoEcBAxZhcq2ityA/nhrJcG0fHjx3Vt//hMsWLF5BVjzOqKFi0qr7RDbiA/nPXSIIqLOySvtPPz86Ps2XPIEmPM6tBe0W71ciU/XhpER44ckVfa5ciRQ8mRJYwx98D+RGi3ermSH694NDsmr7Tjc+0Zsx8V7daV/HAYRHjGO3Na/xuzwkWKyCvGmF2oaLfID2fHmB0GEaZpx8dr23/2edwjYsx+VLRb5Me9e/dk6eUcBtGtWzeVrDHjFfeM2Y+Kdov8uHkzQZZezmEQXbx4Sfere8zSzJxJ/3Rxxph7od2i/eqB/ECOOMNhEJ0/f05eaZcmTRrySZtWlhhjdoF2i/arl7M54jCILl26KK+0S5s2Ha8xY8yG0G7RfvVyNkccBtG1q9fklXb+/vrP1GaMmUNF+3U2RxwG0Q2NJzY+L1OmzPKKMWY3KtpvfEK8vHo5Qx/NMmfJIq+Y3eCNh96XFaDizSszh4r2e+miczny2oOHT154t1WtWomio6JkSZuvBw2mAQO+lCXvhuN47965Q0+ePpE11rZx40Zq3aqFLGk3a9YcqlrNHtsEJ02SlFKnScNLkqTvvvuWhg4ZLEvaBAYF0aZNW2TJMYdBVCG4PO3Zs0eWtBk7bjx16tRFlrwPznhauGA+zZ8/jw4ciBVbI6joZbjDP//8I6/0e/11hx1vS8Hm8T4+PlSsWHFq2rQZNW3WXPcrbDubPHki9erZQ5a0KVWqFEVvf/VujQ7vkLt3/5ZX2vn66l/Ba1f79u0TYd6+fVuKjNxMCQkJIpjQwO3wS6UX/ftW/IXPB58TPq8OHdqJzw+fo7dS0X7//lvnzOo7iY8Revn6+sor77I9OppCalSjmJgYWcPsCJ8fPkd8nt5IRft1NkccBtGjR4/klXapUqaSV94Du9KFhjZWEuTMfPgc8XmqeHljNyra78NHD+XVyzkMoseP9QfRGylSyCvv0ad3L5e2yGTWh8+zd6+esuQ9VLTfJ48fy6uXcxhET57of7vjbW8fzp07S8uW/S5LzJOsWLGczp79S5a8g4r262yOOAwiDN7p5W3LOzZt3CgGPJnnwee6ccMGWfIOKtqvszniMIiY6w4cOCCvmCfiz9c4HEQK3bnLA9Se7O7fd+UVU42DSCFvnvzmDewyMdOODP3OYlmDNwksHyivmCfyts/Xne3XYRBhurtezr668xSVKlfm/Zc8FHq7latUkSXvoKL9OpsjDoOIG5TrcuTISR988KEsMU/SsOEHlDNnLlliznI2RxwHUbJk8kq7v+/pX69mN9//MIL8/TPKEvME+Dx/GDFSlryHivbrbI44DKLkyZLLK+2wgNDbZMmSleYvWKhkv19mPnyO+DyzZs0ma7yHivbrbI44DKLUqVPLK+0eeOmmWJUqVaZNm7dSQECArGF2hM8PnyM+T2+kov06myMOgyhtWh95pZ03L/wsUqQIRW6JopkzZ1OVKlUpXbp0YsATg3d2+KXSi/59K/7C54PPqXLlKuJzw+eHz9FbqWi/Pj7OPRk43Bit9vs1acOG9bKkTf/+A2nQ4CGy5N2wm8Gd27dtsUMjtnddtWolfdqnt6zRbuSo0VS3bj1KmTKlrLEu7NCYxseHkifXPyzhCYYMHkTDhw+TJW3wQ3h1xFpZcsxhEDVrGko//7xUlrRp2649hYdPkiVmJ1evXqFcObPrWnOIXsaZv87RW2/xIZt21LVrZ5oxfZosaYO3yAsXLZElxxw+mvn66d+d7cb16/KKMWY3KtqvszniMIgyZ9Z/lMjlK5flFWPMblS0X2dzxGEQZc2SVV5pp+KQRsaYOVS0X2dzxHGPSMGZRteuXVWy5SxjzL3QbtF+9XI2RxwGkYoBxrt371KCkyc9MsasA+0W7VcvZ3PEYRBlyJBeXmmHNy4XL/L+zYzZDdqtil1anT0/32EQ+fmlVzL348yZ0/KKMWYXKtot8gM54gyHQYR/JH1659LsZU6ePCGvGGN2oaLdIj9SpXLuSCKHQQRZs+l/c3bo4EF5xRizCxXt1pX8eGkQvf32O/JKu7i4Q/KKMWYXKtqtK/nx0iAqWrSovNLuzJkz9ODBA1lijFkdtohFu9XLlfx4aRAVLqx/5fGtW7fo4sULssQYszq0V7RbvVzJj1c8mr0tr/Q5fvy4vGKMWd2JE2peMLmSHy8NIuw2mDZtWlnSbtvWrfKKMWZ1W7dskVfaITeQH856aRDh7Os8efLIknbR26PkFWPM6lS0V+SGK2fnvzSIoECBgvJKuyNHjjh9GD9jzDxop2ivermaG68MorLlyskr7bCvyenTp2SJMWZVmFF9/Zr+Vfeu5sYrgygwMFhe6RO1bZu8YoxZVXSUmmEUV3PjlUGEke8UKVLIknYbN26QV4wxq1LRTpEXrr5xf2UQ4TgQFa/xo6Oj6d9/X7g9NmPMAtA+0U71Ql64ehzZK4MIAoP0P56dP3+OTp06KUuMMavB+NDZs3/JknZa8sKpIKpatZq80mfjBn48Y8yqNqzXd3zYM1rywqkgCgoKEofP6bVs2e/yijFmNSraJ3ICeeEqp4II2z3mz59flrTbsWM7/f23/oP9GWNqoV1u365/fOidd/Jp2mbaqSCCypWryivtsAeuiv9ZxphaaJcq9qjGya5aOB1ENUJC5JU+S5f+JK8YY1ahql1qzQmng6h8+UCX1o44svqPP+jx48eyxBgzG9oj2qVeyAfkhBZOB1G6dOmoTECALGmHM9Wjo3kRLGNWgfaIdqlXqdKlydfXV5Zc43QQQd269eSVPosXL5JXjDGzqWqPevLBpSCqVet9eaXPqpUrxXaUjDFz4URXtEcV3n+/trxynUtBlD9/AfF6Ti90AzdsUDN5ijGmHdaWqXgsQy7o2TLIpSCCBg0ayit9Zs6YLq8YY2aZMX2avNJHby64HET16jeQV/pERKzmTfUZM9Hly5dEO1RBby64HESlS5em3Ln1bx+LneDmzp0jS4wxd0P7UzGVBnmAXNDD5SB6/fXXKTS0iSzpM3vWLCUH/TPGXIN2N2vmTFnSB3mAXNBD09/+8KNG8kofbDvAG6Yx5n6bN29Stn2zijzQFESFCxemIkX0H74I4RPC5BVjzF1UtTvkAPJAL839qXbtO8grfdasiaDDh+NkiTFmNLS31av1L+kAVTmgOYgaffQxpUyZUpa0w7PqBO4VMeY2aG8qxmaxNzVyQAXNQZQ+QwaqWbOWLOmzaOECunbtqiwxxoyCdob2pkJISE2RAypoDiLo0LGTvNLn3r17NCGMe0WMGQ3tDO1NhY6dOssr/V578PCJ5qM1sOt/qZLFlYzx4Kzso8dOilX+zHw4FDNHjqz09OlTWeM6vNI9e/YCZfD3lzXMTDdv3qT8+fLSrVu3ZI12WO4Vs/+A7tf2z+j6V1577bXEVFTTK8I3Z9KkcFliZkub+APB189PlrTB30+ncVsIph7al4oQArR7VSEEuv+l0NCm5OPjI0v6hIdPoDt37sgSM1PSpEmpZImSsqRNieIlxL/DzIdtYNG+VEiTJg01adJMltTQHUR4pGrRopUs6YMzt7lXZB3NmreQV9ro/ftMHbQrFWfaQ/PmLZUPoegaI3oGMzSLFikk1o/phR3eDh06Qn7p08saZha84n23YhDt2bNH1jgPa4+2bI1WcgwV0yc+Pp6KFC4gftcLPdzYAwcpb179pz8/T8lDHha91atXX5b0SUhIoFGjRsoSMxPGACaET3b50Rt/PmzCJA4hixid2J5UhBCgnasOIVDSI4LY2FgqV1bfCtxnMFESqZsjR05Zw8y0c8cOCg1t7NS2LVmyZKVFi5ZQufLlZQ0zE46QLl6sCN2/f1/W6LNz114qXry4LKmjbNgb/3GqJjjimzZ06BBZYmZDqOzYuYs++STU4eAz6hs3/kT8OQ4h60A7UhVCaN9GhBAo6xHBtq1bqXr1KrKkD6YGREZuo7LlyskaZgV//XVGnJEesz9G7DuOI2Twdqxa9eqUK1du+aeYFezauZMqVaog5vupsH79JqpQsaIsqaU0iOD9WiHKtvYIDApK/LciRSgxxpyH8KlatRJtj1ZzsjJOcF0dsVaW1FM3I0nq33+gvNIP38S5c2bLEmPMWWg3qkII+g9Q165fRHmPCFT2ivAaf//+A5Qx41uyhjH2MljYWrx4UYq/cUPW6FO5chWKWLNOloyhvEcEgwcPlVf64Zv5+eefyRJj7FXQXlSFEKhsz44YEkQYYK5Tp64s6YdtC9auXSNLjDFH1q1bSwsXzJcl/WrXrkPlA7WdZ+8KQx7NACvyy5QuqWv19vPefvsd2rV7L6VKlUrWMMaeh9f0ZQNK0/Hjx2SNPpiQuntPDBUqVEjWGMeQHhEULFiIOnXqIkv6nThxnAZ9/ZUsMcb+C+1DVQgB2q87QggM6xEBBs2wBg37oKiA1/grVv5B1au/J2sYY7B+/TqqW+d9ZXOGsKj1z4Nx5O+fUdYYy7AeEeB/ot9nn8uSfvgmd+ncSVmwMeYJ0B7QLlSFEKDduiuEwNAggu7deyrt3mHtTN++fWSJMYb2gHahCoZV0G7dyfAgSp48OY0cNUaW1Jg/b66yDcAZs7NFixaK9qDSiJGjRLt1J0PHiJ7XskUzWrJksSzph13itu/YJd6mMeaNTp48QYHly9Lt27dljX6NGn1M8+YvlCX3cVsQXbhwnkoUL6p0K9hSpUrRho2RSs5XY8xOHjx4QNWqVqK9e/fKGv1Sp05N+2P/pGzZsssa9zH80eyZrFmz0eAhamdo7tu3j7p2VXekCWN2gfteZQjBoMFDTAkhcFuP6Jka71WjLVsiZUmN738YQb168QA28w5jx46hLxQve3r33Uq0Zu1603a6cHsQYcIVZn+q2qwJsKXpsuUr6b33asgaxjwTlnDUr1dHyZHRz2BoA6sW3nknn6xxP7c9mj2D/9lvvh0mS2rgQ2nVqoWYfc2Yp8LgNO5zlSEEaI9mhhC4vUf0TEiN6hQZuVmW1MB8pfUbNpOfzoMBGbMaHCpRvVplOnTokKxRA49ka9ep2bJHD9OCCOlevlyA8gMVK1WqLJaBuHseBGNGefz4MdWrW5s2bdooa9TAW7IdO3dbYgqM2x/NnsGRJGPHjpclddDL6tixvSwxZn+dOnVQHkKA9meVeXimBRE0bdacWrRUc0rs8zDrekD/L2SJMfvCfbxg/jxZUqd5i5aWOonXtEezZ+7duydmhx49ekTWqPPtsO+ob1/e3ZHZ06hRI+jLgQNkSZ38+QtQ9Pad9Oabb8oa85keRLB//36qXKmCmC2q2rhxYdSxE096ZPYydcpk6tGjmyypkyJFCtocuY1KlCgha6zB1EezZ/BNGT9+giyp1atXDz4JhNnKvLlzqGfP7rKkFtqZ1UIILBFEgLGi1m3aypI62KMFg9dzZs+SNYxZF35odujQTuneQs+gfRkxJquCJR7Nnnn06BHVqFGNdmzfLmvUwdT1adNmWGqAjrHnYTuP9u3bGhJCOAZ83bqNlp3WYpkeEeCbNH/+QnrrrUyyRh18uPiQp02dImsYsw7cl0aFEM4ERLuy8tw6SwURYPXvokVLxKCaaviQu3fvKt5GMGYVo0ePFPelESGEdrRw4WLKnj2HrLEmywURBAUH04yZxg0w45XowAH9ZYkx8xh9L6IdVahYUZasy5JBBB9++BEN/eZbWVIPP4Xatm0tps8z5m6479q1a2No7xztB+3IDiw1WP0imN4+e9ZMWVKvWrXqtCCx64rjUxhzB5y60bTJJ7Rhw3pZo16r1m1o8uSpsmR9lg8ibHnQvFkT+uWXn2WNekWLFqWflv5CuXPnkTWMGeP06VP0caMP6c8//5Q16n3wwYc0f8EisU+XXVg+iACv9bH6ePPmTbJGPbxZmD1nLlWtWk3WMKYWFq62bNGcrl69ImvUw+4Ty1esojfeeEPW2IMtIhOvHZf+/CuVDwyUNerh5sBJmWFh42QNY+qEh4dRndq1DA0hzBVCO7FbCIEtekTPxMfHU+33QygmJkbWGKNlq9ZijZoRUwiYd8H6SSwzMnKcE0qWLEmrVkWQX/r0ssZebBVEcOXKZaoZUoMOH46TNcbABztz1hxx6iVjWuAebdO6peE/OHGPRqxZa8hEYHexz2iWhG/28hUrDd9jFzdPcFB5mjljuqxhzHnoAeH+MTqEsLEZ2oOdQwhs1yN65ty5s1Svbh3De0YQGtqExo2fQD4+PrKGsRfD1sfYvsMdR6IXKFBQhFCOHDlljX3ZNogAj2k4WgX7GRktT568NHnKVLHZOGMvgvP6OnfqKPZjN1rx4sXFEVqZMmWWNfZmu0ez56E7+sfqteJtgdFOnTopTh75/LN+YldJxp7B/YD7AveHO0II9/vqxPveU0IIbN0jeub27dv00YcNlZ8g6wi22gybEM69I0Zbt2wRC1aPHDksa4yFe+7nX37zuGECW/eInsGHgklc7lpXg/218dOvW7cuYkoB8z743BFA2D/LXSGEGdO4zz1xrNIjgggw5wfT2rt37ylrjIUtG6ZPm0rFihUWvxuxhQOznuc/d+wh5K7PvVu3HmJNpKfObfOIR7P/Gjt2DPX/4nO3hkPZcuVo5IjRbhmvYubYtXMn9fvsU9q5Y4esMR52Fh323XDq06evrPFMHhlE8NNPS6hD+7aGnAzyMqFNmtKgQYMpV67csobZ3Zkzp2no0CG0cMF8WeMe6P1MnTaDPv64sazxXB4bRICfYKGhjenChfOyxj1wA3Xq1IX69fuM0mfIIGuZ3dy4fp1GjhxBkydPdPsPtKxZs4mdStHT9gYeHURw+fKlxJ8oH4lQcjfscdSrdx/q2rU7pUmTRtYyq8OkxIkTJ9DYH8dQQkKCrHWfgLJlaenSXzzq9fyreHwQAbYR6dOnlxhkNAN6RV27dqPOnbuSr6+vrGVWg9CZNCmcwsMniN6QGdq2a09jxoy15Qp6PbwiiJ7B2WZYCX3//n1Z415p06aljh07U7fu3cX+R8warl27SmHjx9OUKZPo1q1bsta9UqZMSWPHjhc7P3gjrwoiiI2NpbZtWtLBgwdljfulSpWKPgltQt279+DV/SbC/J+wsPFiXZiZs+ULFy5MM2fNFcs2vJXXBRFgDABH+rr7Lch/YSvPWrXep67dulPlylVstbWnXWHrYez0GT4hjFav/kOUzYS3rDgG2tvHEL0yiJ7ByZp9+/YRm5mbDYtq27RtS82aNfeqQUp3wUuL+fPn0cwZM8S6QbPhRcbIkaOpeYuWssa7eXUQwV9/naGuXTrT+vXrZI25sC0ueknt2ncQvaRkyZLJrzBX4cge9H7wkgK9H7y0sILq1d+j8ImTKGfOXLKGeX0QAWZgY6/qr7/60u3zRV4Gb9vq1q1HTZs0E/t1cyi9GsIHM5/nL5hHK1YsN+3t14tgfhnOGsMyJMyYZv8fB9Fz4uLiEm+SLhS1bZussQ5seRJSsyY1aNBQrMBOnTq1/Ar7+++/KTJyM/3++2+0JiJC7FNlNcEVKtD48eFiYJr9Lw6i/0DvaOqUyfT111+a9ir3VbD6ukKFilQjJEQ8vmHb3CRJksiver6nT5/S8ePHxGPX2jVraNu2rWIrGCvClI0hQ78R0za4F+QYB5EDFy9eoM/69aWff14qa6wLg9tBQUEUElJTLLrNm/dtj3qMw+MWNhzDI9fatWsoKipKDD5b3UcfNaIRI0dRlixZZQ1zhIPoFXAscL++fcRjm13gSJnixYpTuXLlqUxAgDjJFo3BDuGE0MEPAczz2rN7N+3YsZ1iD8RS/I0b8k9YH+aGjRw1WgxKM+dwEDkBjWPcuB/ph++HizlIdoTXxblz5xYbrucvUED8jp5T5kyZKG3i19wZUvh+3rp5ky5dvix6OphYePToUTpyOI5Onz5tiekUWmAu0Geff0G9evXhFwsu4iByAR4HBg8eRPPmzhHjFJ4gadKkogGlS+dL/hn9E4MpM2XOnIUyZc5Efr5+YlA8RcqUYo1c6tRpxJufF41H4fuBN4537twWQfLg/n26e/cuxSfE0+VLl+nSpYuJwXOJrl+7TgmJdQj0J0+eyL9tb/h+YD7Q4MFDeA6YRhxEGuAxbeiQQeItDfNu9es3oK8HDeG3YTpxEOmwPTo68afg1+LVMfMulSpVpkGJARQUHCxrmB4cRArg9JDvh39HGzdukDXMU1WpUpX6DxjIJ7goxkGkUHRUFI0c+QNFRKx2637ZzFiY/4OpEf36fS4mJjL1OIgMcODAAfrh++9o2bLfPWZA1hthIB9jQJ9/MYCKFSsma5kROIgMdPr0KZoYHk5z58627Cxt9r8wc71Fi1bUtVs3yp07j6xlRuIgcgO8zl6wYB5NnTJFHM7IrAkn+Hbo2JGaNGnGW/q6GQeRG2ETrk2bNtKUyZPEUgUrrfT3VtgbukaNEOrUuYsYiObN6czBQWSS69eu0a+//iIe2/bu3cuD226EwefSpUtT8+YtxTHlGfz95VeYWTiILODYsaO0cMECWrx4kTjMjxkDG5F98kkoNW3WjPLlyy9rmRVwEFkIekUxMTH089KfxBs3rMNi+mA9Hd58ffhRIypVqhRvxWFRHEQWhVA6dOgQrVq1glauWE779+8Xi0XZy2GxaYkSJah2nbpUp049sfSCw8f6OIhsAluebt22VQxyb4mMFBvAm30ChRVgcBmv2CtVriwGnStWqMjHfNsQB5FN4Tx/DHIjlLZvj6LDhw+bejaXu+BMuIIFC1JgYDC9W6mSGHTGOfHM3jiIPAS23DgcF0d79+2h3bt3U+z+GPrrr79su38SYHuSnDlzUvESJSkgIIBKlSxNhRIftXi/bs/DQeTBHj58SOfPn6Pjx4/ToUMHxeZjGAA/f+48Xb9+TfSgzJw2gLEb9HAyZPCnbNmziYHl/PnzU6FChSlfvnyip4P9j5jn4yDyUvfv36f4+Bt04fwFOpcYVtieFZuWYSOzhPjEXwkJdOvWzcRft0Vv69HjR/Tk8WOxdu5FY1MYq8HarKTJklHyZMlFryVtWp/EX+nELGVfPz+x0VoG/wxi29rs2bJT1mxZyc8vvTj3nXk3DiLGmOl4PjtjzHQcRIwx03EQMcZMRvR/VUW+V2P0Q7sAAAAASUVORK5CYII=;" parent="1" vertex="1">
                    <mxGeometry x="604.86" y="882" width="40.28" height="40" as="geometry"/>
                </mxCell>
                <mxCell id="25" value="List" style="text;html=1;strokeColor=none;fillColor=none;align=center;verticalAlign=middle;whiteSpace=wrap;rounded=0;" parent="1" vertex="1">
                    <mxGeometry x="415.2" y="922" width="36.33" height="30" as="geometry"/>
                </mxCell>
                <mxCell id="26" value="Add" style="text;html=1;strokeColor=none;fillColor=none;align=center;verticalAlign=middle;whiteSpace=wrap;rounded=0;" parent="1" vertex="1">
                    <mxGeometry x="604.86" y="922" width="36.33" height="30" as="geometry"/>
                </mxCell>
                <mxCell id="27" value="" style="html=1;verticalLabelPosition=bottom;labelBackgroundColor=#ffffff;verticalAlign=top;shadow=0;dashed=0;strokeWidth=2;shape=mxgraph.ios7.misc.scroll_(vertical);fillColor=#a0a0a0;" parent="1" vertex="1">
                    <mxGeometry x="710" y="613" width="6" height="239" as="geometry"/>
                </mxCell>
                <mxCell id="28" value="## 1: ListPage" style="text;html=1;strokeColor=none;fillColor=none;align=left;verticalAlign=top;whiteSpace=wrap;rounded=0;" parent="1" vertex="1">
                    <mxGeometry x="320" y="390" width="180" height="30" as="geometry"/>
                </mxCell>
                <mxCell id="29" value="ソートボタンをクリックすると、Sheetが下側から立ち上がる。" style="shape=note;whiteSpace=wrap;html=1;backgroundOutline=1;darkOpacity=0.05;fillColor=none;align=left;" parent="1" vertex="1">
                    <mxGeometry x="90" y="550" width="140" height="100" as="geometry"/>
                </mxCell>
                <mxCell id="30" value="Sorting&lt;br&gt;&lt;br&gt;・Top rating&lt;span style=&quot;white-space: pre;&quot;&gt;&#9;&lt;/span&gt;&lt;span style=&quot;white-space: pre;&quot;&gt;&#9;&lt;/span&gt;&lt;span style=&quot;white-space: pre;&quot;&gt;&#9;&lt;/span&gt;*高評価順&lt;br&gt;・Recent updated&lt;span style=&quot;white-space: pre;&quot;&gt;&#9;&lt;/span&gt;&lt;span style=&quot;white-space: pre;&quot;&gt;&#9;&lt;/span&gt;*更新日時順" style="rounded=0;whiteSpace=wrap;html=1;fillColor=none;align=left;verticalAlign=top;" parent="1" vertex="1">
                    <mxGeometry x="290" y="1040" width="480" height="100" as="geometry"/>
                </mxCell>
                <mxCell id="31" value="ソート条件設定用のSheet（下側から立ち上がる）" style="text;html=1;strokeColor=none;fillColor=none;align=left;verticalAlign=top;whiteSpace=wrap;rounded=0;" parent="1" vertex="1">
                    <mxGeometry x="290" y="1010" width="340" height="30" as="geometry"/>
                </mxCell>
                <mxCell id="32" value="" style="shape=flexArrow;endArrow=classic;html=1;curved=1;endWidth=107;endSize=14.19;width=58;" parent="1" edge="1">
                    <mxGeometry width="50" height="50" relative="1" as="geometry">
                        <mxPoint x="530" y="1220" as="sourcePoint"/>
                        <mxPoint x="530" y="1150" as="targetPoint"/>
                    </mxGeometry>
                </mxCell>
                <mxCell id="33" value="## 2: EditPage" style="text;html=1;strokeColor=none;fillColor=none;align=left;verticalAlign=top;whiteSpace=wrap;rounded=0;" parent="1" vertex="1">
                    <mxGeometry x="1210" y="380" width="180" height="30" as="geometry"/>
                </mxCell>
                <mxCell id="34" value="Title" style="fillColor=none;strokeColor=none;align=left;fontSize=14;" parent="1" vertex="1">
                    <mxGeometry x="1200" y="438" width="260" height="40" as="geometry"/>
                </mxCell>
                <mxCell id="35" value="xxx" style="html=1;shadow=0;dashed=0;shape=mxgraph.bootstrap.rrect;rSize=5;fillColor=none;strokeColor=#999999;align=left;spacing=15;fontSize=14;fontColor=#6C767D;" parent="1" vertex="1">
                    <mxGeometry x="1200" y="478" width="200" height="30" as="geometry"/>
                </mxCell>
                <mxCell id="36" value="Current Chapter" style="fillColor=none;strokeColor=none;align=left;fontSize=14;" parent="1" vertex="1">
                    <mxGeometry x="1200" y="590" width="260" height="40" as="geometry"/>
                </mxCell>
                <mxCell id="37" value="1" style="html=1;shadow=0;dashed=0;shape=mxgraph.bootstrap.rrect;rSize=5;fillColor=none;strokeColor=#999999;align=left;spacing=15;fontSize=14;fontColor=#6C767D;" parent="1" vertex="1">
                    <mxGeometry x="1200" y="630" width="200" height="30" as="geometry"/>
                </mxCell>
                <mxCell id="38" value="Review" style="fillColor=none;strokeColor=none;align=left;fontSize=14;" parent="1" vertex="1">
                    <mxGeometry x="1200" y="837" width="260" height="40" as="geometry"/>
                </mxCell>
                <mxCell id="39" value="" style="html=1;shadow=0;dashed=0;shape=mxgraph.bootstrap.rrect;rSize=5;fillColor=none;strokeColor=#999999;align=left;spacing=15;fontSize=14;fontColor=#6C767D;" parent="1" vertex="1">
                    <mxGeometry x="1200" y="877" width="250" height="90" as="geometry"/>
                </mxCell>
                <mxCell id="40" value="Score" style="fillColor=none;strokeColor=none;align=left;fontSize=14;" parent="1" vertex="1">
                    <mxGeometry x="1200" y="670" width="260" height="40" as="geometry"/>
                </mxCell>
                <mxCell id="41" value="54" style="html=1;shadow=0;dashed=0;shape=mxgraph.bootstrap.rrect;rSize=5;fillColor=none;strokeColor=#999999;align=left;spacing=15;fontSize=14;fontColor=#6C767D;" parent="1" vertex="1">
                    <mxGeometry x="1200" y="710" width="200" height="30" as="geometry"/>
                </mxCell>
                <mxCell id="42" value="Completed" style="fillColor=none;strokeColor=none;align=left;fontSize=14;" parent="1" vertex="1">
                    <mxGeometry x="1200" y="760" width="90" height="40" as="geometry"/>
                </mxCell>
                <mxCell id="43" value="" style="fillColor=#36B37E;strokeColor=none;rounded=1;arcSize=50;sketch=0;hachureGap=4;pointerEvents=0;fontFamily=Architects Daughter;fontSource=https%3A%2F%2Ffonts.googleapis.com%2Fcss%3Ffamily%3DArchitects%2BDaughter;fontSize=20;" parent="1" vertex="1">
                    <mxGeometry x="1210" y="810" width="30" height="16" as="geometry"/>
                </mxCell>
                <mxCell id="44" value="" style="shape=ellipse;strokeColor=none;fillColor=#ffffff;sketch=0;hachureGap=4;pointerEvents=0;fontFamily=Architects Daughter;fontSource=https%3A%2F%2Ffonts.googleapis.com%2Fcss%3Ffamily%3DArchitects%2BDaughter;fontSize=20;" parent="43" vertex="1">
                    <mxGeometry x="1" y="0.5" width="12" height="12" relative="1" as="geometry">
                        <mxPoint x="-14" y="-6" as="offset"/>
                    </mxGeometry>
                </mxCell>
                <mxCell id="45" value="" style="html=1;shadow=0;dashed=0;shape=mxgraph.atlassian.check;strokeColor=#ffffff;sketch=1;hachureGap=4;pointerEvents=0;fontFamily=Architects Daughter;fontSource=https%3A%2F%2Ffonts.googleapis.com%2Fcss%3Ffamily%3DArchitects%2BDaughter;fontSize=20;fillColor=none;" parent="43" vertex="1">
                    <mxGeometry y="0.5" width="6" height="5" relative="1" as="geometry">
                        <mxPoint x="4" y="-3" as="offset"/>
                    </mxGeometry>
                </mxCell>
                <mxCell id="46" value="Save" style="rounded=1;fillColor=#0057D8;strokeColor=none;html=1;fontColor=#ffffff;align=center;verticalAlign=middle;fontStyle=0;fontSize=12;sketch=0;" parent="1" vertex="1">
                    <mxGeometry x="1277" y="990" width="86" height="33" as="geometry"/>
                </mxCell>
                <mxCell id="47" style="edgeStyle=orthogonalEdgeStyle;curved=1;html=1;exitX=1;exitY=0.5;exitDx=0;exitDy=0;exitPerimeter=0;entryX=0;entryY=0.5;entryDx=0;entryDy=0;fontSize=12;endArrow=open;endFill=0;" parent="1" source="48" target="3" edge="1">
                    <mxGeometry relative="1" as="geometry"/>
                </mxCell>
                <mxCell id="48" value="リストの動画をクリック" style="verticalLabelPosition=middle;verticalAlign=middle;html=1;shape=mxgraph.basic.6_point_star;fillColor=none;fontSize=12;horizontal=1;align=center;labelPosition=center;" parent="1" vertex="1">
                    <mxGeometry x="790" y="542" width="180" height="98" as="geometry"/>
                </mxCell>
                <mxCell id="49" style="edgeStyle=orthogonalEdgeStyle;curved=1;html=1;exitX=1;exitY=0.5;exitDx=0;exitDy=0;exitPerimeter=0;fontSize=12;endArrow=open;endFill=0;" parent="1" source="50" target="3" edge="1">
                    <mxGeometry relative="1" as="geometry"/>
                </mxCell>
                <mxCell id="50" value="「Add」ボタン路クリック" style="verticalLabelPosition=middle;verticalAlign=middle;html=1;shape=mxgraph.basic.6_point_star;fillColor=none;fontSize=12;horizontal=1;align=center;labelPosition=center;" parent="1" vertex="1">
                    <mxGeometry x="800" y="874" width="180" height="98" as="geometry"/>
                </mxCell>
                <mxCell id="51" style="edgeStyle=orthogonalEdgeStyle;curved=1;html=1;exitX=1;exitY=0.5;exitDx=0;exitDy=0;entryX=0;entryY=0.5;entryDx=0;entryDy=0;entryPerimeter=0;fontSize=12;endArrow=open;endFill=0;" parent="1" source="17" target="48" edge="1">
                    <mxGeometry relative="1" as="geometry"/>
                </mxCell>
                <mxCell id="52" value="編集モード" style="text;html=1;strokeColor=none;fillColor=none;align=left;verticalAlign=top;whiteSpace=wrap;rounded=0;" parent="1" vertex="1">
                    <mxGeometry x="980" y="560" width="80" height="30" as="geometry"/>
                </mxCell>
                <mxCell id="53" value="新規モード" style="text;html=1;strokeColor=none;fillColor=none;align=left;verticalAlign=top;whiteSpace=wrap;rounded=0;" parent="1" vertex="1">
                    <mxGeometry x="980" y="830" width="80" height="30" as="geometry"/>
                </mxCell>
                <mxCell id="54" value="# データ&lt;br&gt;" style="text;html=1;strokeColor=none;fillColor=none;align=left;verticalAlign=top;whiteSpace=wrap;rounded=0;" parent="1" vertex="1">
                    <mxGeometry x="40" y="2160" width="180" height="30" as="geometry"/>
                </mxCell>
                <mxCell id="55" value="Video" style="swimlane;childLayout=stackLayout;horizontal=1;startSize=30;horizontalStack=0;rounded=1;fontSize=14;fontStyle=0;strokeWidth=2;resizeParent=0;resizeLast=1;shadow=0;dashed=0;align=center;fillColor=none;" parent="1" vertex="1">
                    <mxGeometry x="170" y="2230" width="250" height="280" as="geometry"/>
                </mxCell>
                <mxCell id="56" value="&lt;ul&gt;&lt;li&gt;id (PK)&lt;/li&gt;&lt;li&gt;title&lt;/li&gt;&lt;li&gt;type : VideoType (FK)&lt;/li&gt;&lt;li&gt;currentChapter&lt;/li&gt;&lt;li&gt;score&amp;nbsp; *0.0~5.0&lt;/li&gt;&lt;li&gt;completed&amp;nbsp; *0:未完結、1:完結&lt;/li&gt;&lt;li&gt;review?&lt;/li&gt;&lt;li&gt;userId (FK: User.id)&lt;/li&gt;&lt;li&gt;createdAt&lt;/li&gt;&lt;li&gt;updatedAt&lt;/li&gt;&lt;/ul&gt;" style="text;strokeColor=none;fillColor=none;html=1;whiteSpace=wrap;verticalAlign=top;overflow=hidden;fontSize=12;" parent="55" vertex="1">
                    <mxGeometry y="30" width="250" height="250" as="geometry"/>
                </mxCell>
                <mxCell id="57" value="User" style="swimlane;childLayout=stackLayout;horizontal=1;startSize=30;horizontalStack=0;rounded=1;fontSize=14;fontStyle=0;strokeWidth=2;resizeParent=0;resizeLast=1;shadow=0;dashed=0;align=center;fillColor=none;" parent="1" vertex="1">
                    <mxGeometry x="575.31" y="2230" width="236" height="170" as="geometry"/>
                </mxCell>
                <mxCell id="58" value="&lt;ul&gt;&lt;li&gt;id (PK)&lt;/li&gt;&lt;li&gt;username (unique)&lt;/li&gt;&lt;li&gt;password&lt;/li&gt;&lt;li&gt;createdAt&lt;/li&gt;&lt;li&gt;updatedAt&lt;/li&gt;&lt;/ul&gt;" style="text;strokeColor=none;fillColor=none;html=1;whiteSpace=wrap;verticalAlign=top;overflow=hidden;fontSize=12;" parent="57" vertex="1">
                    <mxGeometry y="30" width="236" height="140" as="geometry"/>
                </mxCell>
                <mxCell id="59" value="" style="edgeStyle=entityRelationEdgeStyle;fontSize=12;html=1;endArrow=ERoneToMany;curved=1;exitX=0;exitY=0.5;exitDx=0;exitDy=0;entryX=1;entryY=0.5;entryDx=0;entryDy=0;" parent="1" source="58" target="56" edge="1">
                    <mxGeometry width="100" height="100" relative="1" as="geometry">
                        <mxPoint x="491.31" y="2520" as="sourcePoint"/>
                        <mxPoint x="591.31" y="2420" as="targetPoint"/>
                    </mxGeometry>
                </mxCell>
                <mxCell id="60" value="# IFDAM図" style="text;html=1;strokeColor=none;fillColor=none;align=left;verticalAlign=top;whiteSpace=wrap;rounded=0;" parent="1" vertex="1">
                    <mxGeometry x="40" y="1240" width="180" height="30" as="geometry"/>
                </mxCell>
                <mxCell id="61" style="edgeStyle=orthogonalEdgeStyle;curved=1;html=1;exitX=1;exitY=0.5;exitDx=0;exitDy=0;entryX=0;entryY=0.5;entryDx=0;entryDy=0;entryPerimeter=0;endArrow=open;endFill=0;" parent="1" source="67" target="92" edge="1">
                    <mxGeometry relative="1" as="geometry"/>
                </mxCell>
                <mxCell id="62" style="edgeStyle=orthogonalEdgeStyle;curved=1;html=1;exitX=1;exitY=0.5;exitDx=0;exitDy=0;entryX=0;entryY=0.5;entryDx=0;entryDy=0;entryPerimeter=0;endArrow=open;endFill=0;" parent="1" source="67" target="95" edge="1">
                    <mxGeometry relative="1" as="geometry"/>
                </mxCell>
                <mxCell id="63" style="edgeStyle=orthogonalEdgeStyle;curved=1;html=1;exitX=1;exitY=0.5;exitDx=0;exitDy=0;entryX=0;entryY=0.5;entryDx=0;entryDy=0;entryPerimeter=0;endArrow=open;endFill=0;" parent="1" source="67" target="98" edge="1">
                    <mxGeometry relative="1" as="geometry"/>
                </mxCell>
                <mxCell id="64" style="edgeStyle=orthogonalEdgeStyle;curved=1;html=1;exitX=1;exitY=0.5;exitDx=0;exitDy=0;entryX=0;entryY=0.5;entryDx=0;entryDy=0;entryPerimeter=0;endArrow=open;endFill=0;" parent="1" source="67" target="88" edge="1">
                    <mxGeometry relative="1" as="geometry"/>
                </mxCell>
                <mxCell id="65" style="edgeStyle=orthogonalEdgeStyle;curved=1;html=1;exitX=1;exitY=0.5;exitDx=0;exitDy=0;entryX=0;entryY=0.5;entryDx=0;entryDy=0;entryPerimeter=0;endArrow=open;endFill=0;" parent="1" source="67" target="111" edge="1">
                    <mxGeometry relative="1" as="geometry"/>
                </mxCell>
                <mxCell id="66" style="edgeStyle=orthogonalEdgeStyle;curved=1;html=1;exitX=1;exitY=0.5;exitDx=0;exitDy=0;entryX=0;entryY=0.5;entryDx=0;entryDy=0;entryPerimeter=0;endArrow=open;endFill=0;" parent="1" source="67" target="114" edge="1">
                    <mxGeometry relative="1" as="geometry"/>
                </mxCell>
                <mxCell id="67" value="1: ListPage" style="swimlane;fontSize=12;fillColor=none;" parent="1" vertex="1">
                    <mxGeometry x="1000" y="1350" width="290" height="410" as="geometry"/>
                </mxCell>
                <mxCell id="68" value="表示&lt;br&gt;・アプリロゴとタイトル&lt;br&gt;・設定中のソート条件（リスト上部）&lt;br&gt;&lt;br&gt;動画リスト @{&lt;br&gt;・タイトル&lt;br&gt;・視聴が終わったチャプター&lt;br&gt;・スコア&lt;br&gt;・完結済みかどうか&lt;br&gt;}&lt;br&gt;&lt;br&gt;&lt;br&gt;入力&lt;br&gt;・検索タイトルのインプットボックス&lt;br&gt;&lt;br&gt;&lt;br&gt;操作&lt;br&gt;・検索インプットボックスに入力&lt;br&gt;・ソートボタン&lt;br&gt;・動画タイプセレクトの選択アイテムを変更&lt;br&gt;・動画リストのレコードを選択&lt;br&gt;&lt;br&gt;（以下、共通操作）&lt;br&gt;・Log outボタン&lt;br&gt;・Listボタン&lt;br&gt;・Addボタン" style="rounded=0;whiteSpace=wrap;html=1;align=left;verticalAlign=top;" parent="67" vertex="1">
                    <mxGeometry y="20" width="290" height="390" as="geometry"/>
                </mxCell>
                <mxCell id="69" style="edgeStyle=orthogonalEdgeStyle;curved=1;html=1;exitX=1;exitY=0.5;exitDx=0;exitDy=0;entryX=0;entryY=0.5;entryDx=0;entryDy=0;fontSize=12;endArrow=open;endFill=0;" parent="1" source="82" target="74" edge="1">
                    <mxGeometry relative="1" as="geometry">
                        <mxPoint x="250" y="1440" as="sourcePoint"/>
                    </mxGeometry>
                </mxCell>
                <mxCell id="70" style="edgeStyle=orthogonalEdgeStyle;curved=1;html=1;exitX=0.5;exitY=1;exitDx=0;exitDy=0;entryX=0.5;entryY=0;entryDx=0;entryDy=0;fontSize=12;endArrow=open;endFill=0;" parent="1" source="71" target="77" edge="1">
                    <mxGeometry relative="1" as="geometry"/>
                </mxCell>
                <mxCell id="71" value="Log in画面に遷移する。" style="ellipse;whiteSpace=wrap;html=1;fontSize=12;fillColor=none;" parent="1" vertex="1">
                    <mxGeometry x="372" y="1510" width="148" height="50" as="geometry"/>
                </mxCell>
                <mxCell id="72" style="edgeStyle=orthogonalEdgeStyle;curved=1;html=1;exitX=0.5;exitY=1;exitDx=0;exitDy=0;entryX=0.5;entryY=0;entryDx=0;entryDy=0;fontSize=12;endArrow=open;endFill=0;" parent="1" source="74" target="71" edge="1">
                    <mxGeometry relative="1" as="geometry"/>
                </mxCell>
                <mxCell id="73" style="edgeStyle=orthogonalEdgeStyle;curved=1;html=1;exitX=1;exitY=0.5;exitDx=0;exitDy=0;entryX=0;entryY=0.5;entryDx=0;entryDy=0;fontSize=12;endArrow=open;endFill=0;" parent="1" source="74" target="84" edge="1">
                    <mxGeometry relative="1" as="geometry"/>
                </mxCell>
                <mxCell id="74" value="Login済みか？" style="rhombus;whiteSpace=wrap;html=1;fontSize=12;fillColor=none;" parent="1" vertex="1">
                    <mxGeometry x="370" y="1410" width="150" height="60" as="geometry"/>
                </mxCell>
                <mxCell id="75" style="edgeStyle=orthogonalEdgeStyle;curved=1;html=1;exitX=0;exitY=0.5;exitDx=0;exitDy=0;entryX=0.5;entryY=1;entryDx=0;entryDy=0;fontSize=12;endArrow=open;endFill=0;" parent="1" source="78" target="82" edge="1">
                    <mxGeometry relative="1" as="geometry">
                        <mxPoint x="170" y="1470" as="targetPoint"/>
                    </mxGeometry>
                </mxCell>
                <mxCell id="76" style="edgeStyle=orthogonalEdgeStyle;curved=1;html=1;exitX=0.5;exitY=1;exitDx=0;exitDy=0;entryX=0.5;entryY=0;entryDx=0;entryDy=0;fontSize=12;endArrow=open;endFill=0;" parent="1" source="77" target="78" edge="1">
                    <mxGeometry relative="1" as="geometry"/>
                </mxCell>
                <mxCell id="77" value="Log in 画面" style="rounded=1;whiteSpace=wrap;html=1;fontSize=12;fillColor=none;" parent="1" vertex="1">
                    <mxGeometry x="370" y="1610" width="150" height="60" as="geometry"/>
                </mxCell>
                <mxCell id="78" value="Log in処理" style="ellipse;whiteSpace=wrap;html=1;fontSize=12;fillColor=none;" parent="1" vertex="1">
                    <mxGeometry x="372" y="1704" width="148" height="50" as="geometry"/>
                </mxCell>
                <mxCell id="79" value="No" style="text;html=1;strokeColor=none;fillColor=none;align=center;verticalAlign=middle;whiteSpace=wrap;rounded=0;fontSize=12;" parent="1" vertex="1">
                    <mxGeometry x="440" y="1470" width="60" height="30" as="geometry"/>
                </mxCell>
                <mxCell id="80" value="2: EditPage" style="swimlane;fontSize=12;fillColor=none;" parent="1" vertex="1">
                    <mxGeometry x="1990" y="1580" width="290" height="290" as="geometry"/>
                </mxCell>
                <mxCell id="81" value="表示&lt;br&gt;・（各種インプット内容の名称）&lt;br&gt;&lt;br&gt;&lt;br&gt;入力&lt;br&gt;・タイトル&lt;br&gt;・動画タイプ - Movie or TV show&lt;br&gt;・読み終わったチャプター&lt;br&gt;・スコア&lt;br&gt;・完結済みかどうか&lt;br&gt;・レビュー&lt;br&gt;&lt;br&gt;&lt;br&gt;操作&lt;br&gt;・Saveボタン&lt;br&gt;・Deleteボタン（編集モードのみ）&lt;br&gt;&lt;br&gt;※共通操作ボタンは省略" style="rounded=0;whiteSpace=wrap;html=1;align=left;verticalAlign=top;" parent="80" vertex="1">
                    <mxGeometry y="20" width="290" height="270" as="geometry"/>
                </mxCell>
                <mxCell id="82" value="WebAppのURLへの移動処理" style="ellipse;whiteSpace=wrap;html=1;" parent="1" vertex="1">
                    <mxGeometry x="80" y="1400" width="170" height="80" as="geometry"/>
                </mxCell>
                <mxCell id="83" style="edgeStyle=orthogonalEdgeStyle;html=1;exitX=1;exitY=0.5;exitDx=0;exitDy=0;entryX=0;entryY=0.5;entryDx=0;entryDy=0;endArrow=open;endFill=0;curved=1;" parent="1" source="84" target="68" edge="1">
                    <mxGeometry relative="1" as="geometry"/>
                </mxCell>
                <mxCell id="84" value="登録済みの本データを取得する。" style="ellipse;whiteSpace=wrap;html=1;fontSize=12;fillColor=none;" parent="1" vertex="1">
                    <mxGeometry x="679" y="1415" width="148" height="50" as="geometry"/>
                </mxCell>
                <mxCell id="85" style="edgeStyle=none;html=1;exitX=0.5;exitY=0;exitDx=0;exitDy=0;exitPerimeter=0;entryX=0.5;entryY=1;entryDx=0;entryDy=0;endArrow=open;endFill=0;" parent="1" source="86" target="84" edge="1">
                    <mxGeometry relative="1" as="geometry"/>
                </mxCell>
                <mxCell id="86" value="Video" style="shape=cylinder3;whiteSpace=wrap;html=1;boundedLbl=1;backgroundOutline=1;size=15;" parent="1" vertex="1">
                    <mxGeometry x="698" y="1610" width="110" height="100" as="geometry"/>
                </mxCell>
                <mxCell id="87" style="edgeStyle=orthogonalEdgeStyle;curved=1;html=1;exitX=1;exitY=0.5;exitDx=0;exitDy=0;exitPerimeter=0;entryX=0;entryY=0.5;entryDx=0;entryDy=0;endArrow=open;endFill=0;" parent="1" source="88" target="90" edge="1">
                    <mxGeometry relative="1" as="geometry"/>
                </mxCell>
                <mxCell id="88" value="本リストのレコードを&lt;br&gt;選択する。" style="verticalLabelPosition=middle;verticalAlign=middle;html=1;shape=mxgraph.basic.6_point_star;fillColor=none;fontSize=12;horizontal=1;align=center;labelPosition=center;" parent="1" vertex="1">
                    <mxGeometry x="1450" y="1580" width="180" height="70" as="geometry"/>
                </mxCell>
                <mxCell id="89" style="edgeStyle=orthogonalEdgeStyle;curved=1;html=1;exitX=1;exitY=0.5;exitDx=0;exitDy=0;entryX=0;entryY=0.5;entryDx=0;entryDy=0;endArrow=open;endFill=0;" parent="1" source="90" target="81" edge="1">
                    <mxGeometry relative="1" as="geometry"/>
                </mxCell>
                <mxCell id="90" value="編集対象のデータを&lt;br&gt;編集画面に初期反映する。" style="ellipse;whiteSpace=wrap;html=1;fontSize=12;fillColor=none;" parent="1" vertex="1">
                    <mxGeometry x="1720" y="1610" width="170" height="55" as="geometry"/>
                </mxCell>
                <mxCell id="91" style="edgeStyle=orthogonalEdgeStyle;curved=1;html=1;exitX=1;exitY=0.5;exitDx=0;exitDy=0;exitPerimeter=0;entryX=0;entryY=0.5;entryDx=0;entryDy=0;endArrow=open;endFill=0;" parent="1" source="92" target="93" edge="1">
                    <mxGeometry relative="1" as="geometry"/>
                </mxCell>
                <mxCell id="92" value="「Log out」ボタンを&lt;br&gt;クリックする。" style="verticalLabelPosition=middle;verticalAlign=middle;html=1;shape=mxgraph.basic.6_point_star;fillColor=none;fontSize=12;horizontal=1;align=center;labelPosition=center;" parent="1" vertex="1">
                    <mxGeometry x="1410" y="1830" width="180" height="63" as="geometry"/>
                </mxCell>
                <mxCell id="93" value="Log in 画面" style="rounded=1;whiteSpace=wrap;html=1;fontSize=12;fillColor=none;" parent="1" vertex="1">
                    <mxGeometry x="1667" y="1850" width="150" height="60" as="geometry"/>
                </mxCell>
                <mxCell id="94" style="edgeStyle=orthogonalEdgeStyle;curved=1;html=1;exitX=1;exitY=0.5;exitDx=0;exitDy=0;exitPerimeter=0;entryX=0;entryY=0.5;entryDx=0;entryDy=0;endArrow=open;endFill=0;" parent="1" source="95" target="96" edge="1">
                    <mxGeometry relative="1" as="geometry"/>
                </mxCell>
                <mxCell id="95" value="検索インプットボックス&lt;br&gt;に文字を入力する。" style="verticalLabelPosition=middle;verticalAlign=middle;html=1;shape=mxgraph.basic.6_point_star;fillColor=none;fontSize=12;horizontal=1;align=center;labelPosition=center;" parent="1" vertex="1">
                    <mxGeometry x="1420" y="1223.5" width="180" height="63" as="geometry"/>
                </mxCell>
                <mxCell id="96" value="(*1)動画リストをフィルターして表示する。" style="ellipse;whiteSpace=wrap;html=1;fontSize=12;fillColor=none;" parent="1" vertex="1">
                    <mxGeometry x="1710" y="1247" width="174" height="70" as="geometry"/>
                </mxCell>
                <mxCell id="97" style="edgeStyle=orthogonalEdgeStyle;curved=1;html=1;exitX=1;exitY=0.5;exitDx=0;exitDy=0;exitPerimeter=0;entryX=0;entryY=0.5;entryDx=0;entryDy=0;endArrow=open;endFill=0;" parent="1" source="98" target="100" edge="1">
                    <mxGeometry relative="1" as="geometry"/>
                </mxCell>
                <mxCell id="98" value="ソートボタンを&lt;br&gt;クリックする。" style="verticalLabelPosition=middle;verticalAlign=middle;html=1;shape=mxgraph.basic.6_point_star;fillColor=none;fontSize=12;horizontal=1;align=center;labelPosition=center;" parent="1" vertex="1">
                    <mxGeometry x="1430" y="1437" width="180" height="63" as="geometry"/>
                </mxCell>
                <mxCell id="99" style="edgeStyle=orthogonalEdgeStyle;curved=1;html=1;exitX=1;exitY=0.5;exitDx=0;exitDy=0;entryX=0;entryY=0.5;entryDx=0;entryDy=0;entryPerimeter=0;endArrow=open;endFill=0;" parent="1" source="100" target="102" edge="1">
                    <mxGeometry relative="1" as="geometry"/>
                </mxCell>
                <mxCell id="100" value="ソート条件を選択するためのSheetを表示する。" style="ellipse;whiteSpace=wrap;html=1;fontSize=12;fillColor=none;" parent="1" vertex="1">
                    <mxGeometry x="1667" y="1439.25" width="176" height="58.5" as="geometry"/>
                </mxCell>
                <mxCell id="101" style="edgeStyle=orthogonalEdgeStyle;curved=1;html=1;exitX=1;exitY=0.5;exitDx=0;exitDy=0;exitPerimeter=0;entryX=0;entryY=0.5;entryDx=0;entryDy=0;endArrow=open;endFill=0;" parent="1" source="102" target="103" edge="1">
                    <mxGeometry relative="1" as="geometry"/>
                </mxCell>
                <mxCell id="102" value="Sheetのソート条件を&lt;br&gt;クリックする。" style="verticalLabelPosition=middle;verticalAlign=middle;html=1;shape=mxgraph.basic.6_point_star;fillColor=none;fontSize=12;horizontal=1;align=center;labelPosition=center;" parent="1" vertex="1">
                    <mxGeometry x="1900" y="1434.75" width="180" height="63" as="geometry"/>
                </mxCell>
                <mxCell id="103" value="動画リストをソートする。" style="ellipse;whiteSpace=wrap;html=1;fontSize=12;fillColor=none;" parent="1" vertex="1">
                    <mxGeometry x="2134" y="1434.75" width="176" height="58.5" as="geometry"/>
                </mxCell>
                <mxCell id="104" style="edgeStyle=orthogonalEdgeStyle;curved=1;html=1;exitX=0.5;exitY=1;exitDx=0;exitDy=0;entryX=0.5;entryY=0;entryDx=0;entryDy=0;entryPerimeter=0;endArrow=open;endFill=0;" parent="1" source="105" target="108" edge="1">
                    <mxGeometry relative="1" as="geometry"/>
                </mxCell>
                <mxCell id="105" value="編集内容をデータストアに&lt;br&gt;保存する。" style="ellipse;whiteSpace=wrap;html=1;fontSize=12;fillColor=none;" parent="1" vertex="1">
                    <mxGeometry x="2629" y="1611.5" width="176" height="58.5" as="geometry"/>
                </mxCell>
                <mxCell id="106" style="edgeStyle=orthogonalEdgeStyle;curved=1;html=1;exitX=1;exitY=0.5;exitDx=0;exitDy=0;exitPerimeter=0;entryX=0;entryY=0.5;entryDx=0;entryDy=0;endArrow=open;endFill=0;" parent="1" source="107" target="105" edge="1">
                    <mxGeometry relative="1" as="geometry"/>
                </mxCell>
                <mxCell id="107" value="「Save」ボタンを&lt;br&gt;クリックする。" style="verticalLabelPosition=middle;verticalAlign=middle;html=1;shape=mxgraph.basic.6_point_star;fillColor=none;fontSize=12;horizontal=1;align=center;labelPosition=center;" parent="1" vertex="1">
                    <mxGeometry x="2370" y="1600" width="180" height="63" as="geometry"/>
                </mxCell>
                <mxCell id="108" value="Video" style="shape=cylinder3;whiteSpace=wrap;html=1;boundedLbl=1;backgroundOutline=1;size=15;" parent="1" vertex="1">
                    <mxGeometry x="2669" y="1730" width="110" height="100" as="geometry"/>
                </mxCell>
                <mxCell id="109" style="edgeStyle=orthogonalEdgeStyle;curved=1;html=1;exitX=1;exitY=0.5;exitDx=0;exitDy=0;entryX=0;entryY=0.5;entryDx=0;entryDy=0;entryPerimeter=0;endArrow=open;endFill=0;" parent="1" source="81" target="107" edge="1">
                    <mxGeometry relative="1" as="geometry"/>
                </mxCell>
                <mxCell id="110" style="edgeStyle=orthogonalEdgeStyle;curved=1;html=1;exitX=1;exitY=0.5;exitDx=0;exitDy=0;exitPerimeter=0;entryX=0;entryY=0.5;entryDx=0;entryDy=0;endArrow=open;endFill=0;" parent="1" source="111" target="115" edge="1">
                    <mxGeometry relative="1" as="geometry"/>
                </mxCell>
                <mxCell id="111" value="「List」ボタンを&lt;br&gt;クリックする。" style="verticalLabelPosition=middle;verticalAlign=middle;html=1;shape=mxgraph.basic.6_point_star;fillColor=none;fontSize=12;horizontal=1;align=center;labelPosition=center;" parent="1" vertex="1">
                    <mxGeometry x="1410" y="1940" width="180" height="70" as="geometry"/>
                </mxCell>
                <mxCell id="112" value="ヘッダーとフッターは省略して記載している。" style="shape=note;whiteSpace=wrap;html=1;backgroundOutline=1;darkOpacity=0.05;fillColor=none;align=left;" parent="1" vertex="1">
                    <mxGeometry x="1580" y="604" width="170" height="98" as="geometry"/>
                </mxCell>
                <mxCell id="113" style="edgeStyle=orthogonalEdgeStyle;curved=1;html=1;exitX=1;exitY=0.5;exitDx=0;exitDy=0;exitPerimeter=0;endArrow=open;endFill=0;" parent="1" source="114" target="81" edge="1">
                    <mxGeometry relative="1" as="geometry"/>
                </mxCell>
                <mxCell id="114" value="「Add」ボタンを&lt;br&gt;クリックする。" style="verticalLabelPosition=middle;verticalAlign=middle;html=1;shape=mxgraph.basic.6_point_star;fillColor=none;fontSize=12;horizontal=1;align=center;labelPosition=center;" parent="1" vertex="1">
                    <mxGeometry x="1450" y="1704" width="180" height="70" as="geometry"/>
                </mxCell>
                <mxCell id="115" value="1: ListPage" style="rounded=1;whiteSpace=wrap;html=1;fontSize=12;fillColor=none;" parent="1" vertex="1">
                    <mxGeometry x="1656" y="1980" width="150" height="60" as="geometry"/>
                </mxCell>
                <mxCell id="117" value="" style="shape=image;verticalLabelPosition=bottom;labelBackgroundColor=default;verticalAlign=top;aspect=fixed;imageAspect=0;image=data:image/png,iVBORw0KGgoAAAANSUhEUgAAAPoAAAD+CAYAAAATfRgrAAAAAXNSR0IArs4c6QAAAARnQU1BAACxjwv8YQUAAAAJcEhZcwAADsMAAA7DAcdvqGQAABDESURBVHhe7d0JdFT1vcDx32TfCCEQCCSEKAQCqFhWgT6x0AcEUZQISt3oq4jPBZ4bfU+qxbpVOZbnaZ9F7aHSWsV9gYLIUuWwCaIgsik5hUMmiYIJW8g+8+Z//ecUwpbAvTe58/9+NIf7/0/O7N/cO3cmN77KqtqgAAhrEfpfAGGM0AEDEDpgAEIHDEDogAEIHTAAoQMGIHTAAIQOGIDQAQMQOmAAQgcMQOiAAfjtNQds3rxZli//SAoKCsRfWCh+v/ryy8GDB/V3oF5KSopkZGSEvjIlIzNTcnJyZMSIf5c+ffro74AdCN0mS5d+KO+//558uGSJFBX59SzOlQp/dF6eXH31OBk1arSexbki9PO0aNFCeXTWI7J161Y9A7uptfusRx+TvLwxegZNRejnaMWK5TLr1w/Lxo0b9Qyc1q9fP5k9+3cyZOhQPYPGIvQmCgaDMn36PfLiC3P1DNx27733y1O/fVqP0BiE3gRVVVVy042TZOHCD/QMmkt+/nXy8vy/SnR0tJ7BmRB6I5WXl8vYsXmybu1aPYPmdvnlw+Td9z6QxMREPYPT4X30RggEAjJxQj6RtzCrVn0iN1w/wXo5hTMj9EaY+dD/WDvf0PIsW/aRPPyrmXqE02HT/SwWLHhNJt96sx6hpfrbqwus1+04NUI/g+LiIsntkWPthEPLpl6n79z1jaSltdczOB6b7mfwUGiTnci9Qe0snTnzIT1CQ6zRT0N9Xv2yQf31CF4QEREhGz/7Qnr37q1nUI81+mlMm3aXXoJXqHdH7rt3uh7heKzRT4G1ubdt+nwLa/UGWKOfwqJFfPLNy3j8Tkbop7CIj7h6Go/fydh0b6CkpFiyu3TWI3iV318ibdu10yOwRm9g/fr1egletv5THsfjEXoDhYX79BK8rHAfj+PxCL0BfyGHgQoHhYWFegkKoTfAGj08FPoJ/XjsjGtgxIgrZM3q1Xpkr4GDBklsbKweobKyUjZu2KBH9lK/q/7RshV6BEJvYOiQQbJp0yY9stfX3xRIVlYXPcKePf+0fmnICf3795fVa9ghV49Nd8AAhA4YgNABAxA6YABCBwxA6IABCB0wAKEDBiB0wACEDhiA0AEDEDpgAEIHDEDogAEIHTAAoQMGIHTAAIQOGIDQAQMQOmAAQgcM0KxHgS0vL5ejR49IaWmplH5fKpGRkfqU5jN16m2ya9cuPbLXgtfflPQO6XqE4pIimXTD9Xpkr9zcXJk79yU9aj51dXWS2jZV2rZtK0lJrSQhIUGf4q5mCV0dy3vpRx/KurVr5fPPN0lZWZk+BQhP6g8+DhwwUPr17y+jRo6WAQMH6lPc4WroRUV++eWMB+XNN9/QM4CZJkyYKE8/M1s6dcrQM85y5TV6MBiUd999R64aO4bIgRDVgepBdaH6cJora/Tnn/+DPPabR9lEBxpITU2VXz38iNx55916xhmOh/7117tk8GUDrR1vAE6WmJgon3+xRbp0ydYz9nN0072iokLuvutOIgfOQPUx7Z67rT866RRHQ3/uuTmyatUnegTgdJYu/dDqxSmOhV5QsFveYscb0GjvvP2W9RdmneBY6Js3b5Zt27bpEYCz2bp1q/XlBMdCVz+Z3HjbAAgXgUBA9u7do0f2ciz04qJivQSgsZzqxrHQo6Ki9BKAxnJqK9ix0Dt26qiXADRWh/QOeslejoWek9NdLwForB49cvWSvRwLvXv37nLxxRfrEYCz6du3r/Ts2VOP7OVY6Bde2FVGjhytRwDOZvjwn0rnzll6ZC/HQo+IiJCpd9whubnO/IQCwonq5PapU61unOBY6EpWVhd5/Iknxefz6RkAp/LUb5+2enGKo6ErV145VvLzr9MjAA2NG3eN5OWN0SNnOB66Wps/99zvZfz4fD0DoJ460sxLf5qnR85xPHRFHS/rlb+9Jn9++S+SkpKiZwFzqQNOqB7m/+UVSU5O1rPOcf3gkNu3b5c5c56VrV9ukX2FhfL9gQP6FCC8qRVeVufO8qO+/WTatOmu7qhulqPAKn5/ofXbbTt2bLcOr1zk90t0dPRZd9zV1NTIkiWL9ch+0e3aS1yXruI7zd7PumPlUnuwVAJVlRKsrhZfVJT4YmIlqlWyRKWk6u+CXWpC93XdkcOh+7pKgrW1ofs6RiJi46z7OjIhUX/XiYKBgFTuLZCaA9/pGfup19Tq+Xo26nDP6R07Wp8r6dmzl/Tu3VsyMjL1qe5pttDPx/Dhw2TtmjV6ZK/cl96WqOTWegSvqj18SHZOcWa/0JChQ2XlSm8dUMWV1+h2iwv9RHeKWlvD+5x8HJ18/jnFk6E7KhjQC/A0HscTEDpgAEIHDEDogAEIHTAAoQMGIHTAAIQOGIDQAQMQOmAAQgcMQOiAAQgdMAChAwYgdMAAhA4YgNABAxA6YABCBwxA6IABCL0FUYeSri7xS/lXX8jhDavl6JbPrHHd0SP6O1omdf2q/Pvk6OaN1vUu375Fqr8rsW4PWgZPHu55TN4oWblyhR7Zq9szL1jHdXeTOmLpoXWfWIFU7vunVBf79SkiMR0zJLZjpiT0uEhaD7rcGrcU6noe+nSVHNuxVSr9e6Vm/7f6FJHYzGyJ7ZQpib36SOvBw1w/5r06rvvuGVP1yF7Dh4+QxUuW6pE3EHoDbod+eOMaKXrpf6X2UJmeOb2ImFhJv+l2SR01Ts80n9Kl70vJKy9KoLpKz5xeVOs20mnKf0nygKF6xnmEfiI23ZuJCtv/wu9k35zHGhW5oqIqmvd72Tv7EWtTuTmoy1WXr65HYyJX1O1Tt1Pd3sbeVtiL0JuBeu2qnvRlKxdLsK5Wzzbekc/Win/ubKneX6Jn3FH9bZF1uerym0rdTnV71e0OVBzTs3ALobstGJSy5X+XI5vW6Ylzc+zr7XLggzes83ODCnX/ewusyz0f6naXfeytzd5wQOguK9/xpXz31nw9Oj+lyxbKwdXO7Kto6OAny6TsH0v06Px8+/qfQz8wtukR3EDoLgpUVkjx/D9KoKpxr23PKrQ2V+dXW+bs34tT51/y6p9s23pQm+7F8/5g3R9wB6G76HDotW11kb070eqOHg6t1ZfrkTPUmlxdjp2qQveDet8d7iB0Fx3b+VWj91Q3Wmgtq95/d+y1euh8j371he3nr/6+fDmb764hdBepvdZOqP622Prj/04IBuqkxqG9+9UlztwfOBmhu6i27Hu9ZC/13vS5vE3XGMG6Oqk9Yu9me73a0gN6CU4jdBcFKiv1kr3Uzq1grTOhSyj0YE21HtiLD8+4h9BdFPTgH+cPqtfmTr1V7/PpBTiN0MOCR4MhdNcQOmAAQgcMQOiAAQgdMAChAwYgdMAAhA4YgNABAxA6YABCBwxA6IABCB0wAKEDBiB0wACEDhiA0AEDEDpgAEIHDEDogAEIHTAAoQMGIHTAAIQOGIDQAQMQOmAAQgcMQOiAAQgdMAChAwYgdMAAhA4YgNABAxA6YABCBwxA6IABCB0wAKEDBiB0wACEDhiA0AEDEDpgAEIHDEDogAEIHTAAoQMGIHTAAIQOGIDQAQMQOmAAQgcMQOiAAQgdMAChAwYgdMAAhA4YgNABAxA6YABCBwxA6IABCB0wAKEDBiB0wACEDhiA0AEDELqbAgG9YLdg6P/QlxOs83XovB27P9AQobspMlIv2M0nvghnHsofztf3w8Bujt0faIjQXRTVOlUv2SsyKUl8UVF6ZC91vur8neDU/YGTEbqL4jK76CV7xXTMDNXuTOjqfK3zd4BT9wdORuguirugm16yV0L3Xo5uusdfkKNH9orv1kMvwWmE7qLEXn0kOq2DHtkjIi5eWvW9TI+c0arfYImIjdMje8S0T7fuD7iD0F0Ul3WBJF3ST4/sEX9hjiT0uEiPnJHY+1KJ79pdj+yh7ofYjCw9gtMI3WXt82+2grdDVHJrSb/5Dsc22+up81eXoy7PDur2p42/SY/gBkJ3WXTbNOkw6Rehes7/Lat24yaF1uj2rmlPR12OurzzFrrdHX52m3U/wD2E3gyS+vSXdmMnnNeaOOXffipthufpkTva/GSUpPx4hB41nbq97a6aENps769n4BZCbwa+yChpP+EW6XDjFIls1bTN4YiYWGl39fXS8dY7JTIhUc+6IzKxlaTf8p/W5avr0RTqdqrb22Hi5NDt54MybiP0ZqL2Yqu1evZ/P97oze+YjhnSefpMSbd+QCTrWXdFtU6xLl9dj5i0dD17BqFN9YScntbttLZiomP0CXCTr7Kq1qEPMjtnTN4oWblyhR7Zq9szL0hcl6565I5gXa2Uf7VZjmzeIBXf7JCKPQUSrKm21nyxnbMlvmsPaXXpQGtPtXo7raUIVByTo19ukiNbNkpFwS6p2rcndFvqrJjjs7tKfCjwVj8aaO21V1sxbqrcWyC7Z0zVI3sNHz5CFi9ZqkfeQOgNNEfo9VQkweoqqT16WIJVleKLirY2eSPi4lwPpSnUD6pAZaXUHTkkwdoa8YW2VqKSksUX2rxvrs10Qj8Rm+4tiIoiIj7B2iSOzcyWmPSM0OvipBYduaKun7qe6vpa1zt0/dXt4LV4y0HogAEIHTAAoQMGIHTAAIQOGIDQAQMQOmAAQgcMQOiAAQgdMAChAwYgdMAAhA4YgNABAxA6YABCBwxA6IABCB0wAKEDBiD0BnxRHI44HPA4nojQG1DHLYf38TieyJOHex5/7ThZvPjvemQvdUTTqDapEsEfGvCsQE211JaVWoehdsI111wrC15/U4+8wZOh/3zyLfLaa6/qEeCuyT//D5k790U98gZPbrq3Ca1xgeaS6sHnnydDT21L6Gg+bVLb6CXv8GToae3SJC4uTo8A9yQmJkr7tPZ65B2eDP2iiy6WdqHYAbelpraV7t176JF3eDL0wUOGSE5Ojh4B7unWrZtcNniwHnmHJ0OPiIiQy4cN0yPAPep55/P59Mg7PBm6MnLkaElISNAjwHnq9bl63nmRZ0PPzc2VK674iR4Bzhs9Ok969eqlR97iyQ/M1Nvw6acybNiPJRj07E2AR6iXi+vWb5Q+ffroGW/x7Bpd6T9ggIwbd40eAc7Jz79OLrnkEj3yHk+v0ZXdu7+Rfn0vlaqqKj0D2Et9ZuPLrdskK6uLnvEeT6/RlW7dcuSJJ5/y5J5QtHzqefXss3M8Hbni+dCVu+66R+677wE9Auxz//0Pyi9um6JH3hUWoaufug/O+KVMnHi9ngHO3w03TJIHHpyhR97m+dfox/P7C+X2KbfJihXL9QxwbvLyxsj/Pf9H6dQpQ894W1is0etlZGTK62+8JT+78SY9AzSdev789ZVXwyZyJaxCV5KSkmTevJfl8SeeZAcdmkQ9X9TzRj1/1PMonIRd6PUeeGCGLF6y1PoFGILHmajnh3qeqOeLet6Eo7B6jX4qpaWl8vHH/5BZv37Ees89EAjoU2A69Wk39fbsrEd/Y32cOjU1fA9oEvah19u//zuZP/9lefedt2Xnzp1SUVFB9AZSccfHx1u/K3Ht+Hy59dbJkubBA0k0lTGhH2/v3j3WUWQXLVwoe/bskUOHD0nFsWNyLPSlsKnvfeoxVFHHxsZKXCjs1smtJTs7W8ZedZVceeVYz38ApqmMDL1eXV2dVFdXW//+sMzHaMOFT/0Xij06JsYKPjIyUmJCy+pfExkdOmCKsN3rDuBfCB0wAKEDBiB0wACEDhiA0AEDEDpgAEIHDEDoQNgT+X8lvP91anpYWgAAAABJRU5ErkJggg==;" parent="1" vertex="1">
                    <mxGeometry x="1430" y="449.5" width="36.42" height="37" as="geometry"/>
                </mxCell>
                <mxCell id="118" value="編集モードの時は削除ボタンを表示する。" style="shape=note;whiteSpace=wrap;html=1;backgroundOutline=1;darkOpacity=0.05;fillColor=none;align=left;" parent="1" vertex="1">
                    <mxGeometry x="1580" y="430" width="170" height="98" as="geometry"/>
                </mxCell>
                <mxCell id="119" style="edgeStyle=none;html=1;exitX=1;exitY=0.5;exitDx=0;exitDy=0;endArrow=none;endFill=0;entryX=-0.006;entryY=0.583;entryDx=0;entryDy=0;entryPerimeter=0;" parent="1" source="117" target="118" edge="1">
                    <mxGeometry relative="1" as="geometry">
                        <mxPoint x="1460" y="592.0000000000002" as="sourcePoint"/>
                        <mxPoint x="1550" y="544" as="targetPoint"/>
                    </mxGeometry>
                </mxCell>
                <mxCell id="120" value="「Delete」ボタンを&lt;br&gt;クリックする。" style="verticalLabelPosition=middle;verticalAlign=middle;html=1;shape=mxgraph.basic.6_point_star;fillColor=none;fontSize=12;horizontal=1;align=center;labelPosition=center;" parent="1" vertex="1">
                    <mxGeometry x="2370" y="1860" width="180" height="63" as="geometry"/>
                </mxCell>
                <mxCell id="121" style="edgeStyle=orthogonalEdgeStyle;curved=1;html=1;exitX=1;exitY=0.5;exitDx=0;exitDy=0;entryX=0;entryY=0.5;entryDx=0;entryDy=0;entryPerimeter=0;endArrow=open;endFill=0;" parent="1" source="81" target="120" edge="1">
                    <mxGeometry relative="1" as="geometry">
                        <mxPoint x="2290" y="1745" as="sourcePoint"/>
                        <mxPoint x="2401" y="1711.5" as="targetPoint"/>
                    </mxGeometry>
                </mxCell>
                <mxCell id="122" value="ダイアログで削除OKを確認後、&lt;br&gt;編集中の本データを削除する。" style="ellipse;whiteSpace=wrap;html=1;fontSize=12;fillColor=none;" parent="1" vertex="1">
                    <mxGeometry x="2636" y="1875.75" width="176" height="58.5" as="geometry"/>
                </mxCell>
                <mxCell id="123" value="Video" style="shape=cylinder3;whiteSpace=wrap;html=1;boundedLbl=1;backgroundOutline=1;size=15;" parent="1" vertex="1">
                    <mxGeometry x="2679" y="1980" width="110" height="100" as="geometry"/>
                </mxCell>
                <mxCell id="124" style="edgeStyle=orthogonalEdgeStyle;curved=1;html=1;exitX=1;exitY=0.5;exitDx=0;exitDy=0;entryX=0;entryY=0.5;entryDx=0;entryDy=0;endArrow=open;endFill=0;exitPerimeter=0;" parent="1" source="120" target="122" edge="1">
                    <mxGeometry relative="1" as="geometry">
                        <mxPoint x="2519" y="1953.5" as="sourcePoint"/>
                        <mxPoint x="2649" y="2160" as="targetPoint"/>
                    </mxGeometry>
                </mxCell>
                <mxCell id="125" style="edgeStyle=orthogonalEdgeStyle;curved=1;html=1;exitX=0.5;exitY=1;exitDx=0;exitDy=0;endArrow=open;endFill=0;" parent="1" source="122" target="123" edge="1">
                    <mxGeometry relative="1" as="geometry">
                        <mxPoint x="2726.9999999999995" y="1680" as="sourcePoint"/>
                        <mxPoint x="2734" y="1740" as="targetPoint"/>
                    </mxGeometry>
                </mxCell>
                <mxCell id="127" value="" style="shape=image;verticalLabelPosition=bottom;labelBackgroundColor=default;verticalAlign=top;aspect=fixed;imageAspect=0;image=data:image/png,iVBORw0KGgoAAAANSUhEUgAAAV4AAAE5CAYAAADY2kj4AAAAAXNSR0IArs4c6QAAAARnQU1BAACxjwv8YQUAAAAJcEhZcwAADsMAAA7DAcdvqGQAADQySURBVHhe7d0HXJZV3wfwn6hsRFBwL1REcePeZY6yPTVzVGblozlzZo5yjzSzMrNsPNbTsJ2amiO3uFHBhQxBFAQEEcTx3ufy+LaU+1xwcd2D3/fz4eP1v27et8eC333uc53zP8Wyc67eABERmcZF/klERCZh8BIRmYzBS0RkMgYvEZHJGLxERCZj8BIRmYzBS0RkMgYvEZHJGLxERCZj8BIRmYzBS0RkMgYvEZHJGLxERCZj8BIRmYzBS0RkMgYvEZHJGLxERCZj8BIRmYzBS0RkMgYvEZHJGLxERCbjKcNEZLdyc3JxdPchRO6OwIlDUUg/n4b05AvwLeuPikGVUK5KRYS2aYQGbZrI/wvHwOAlIrtybM8RLWyP7D6IkweOybt5a3Vve3R+6l7UqF9b3rFvDF4isqnTR05ZgvagNqoVX9euXZOv6Dds0QTUb91YVvaLwUtEpkqMjkdkeASO7ro5hZCVmSVfKTjv0qXwyltjEdTAvke+DF4iKlSpSclayB4NP4yjOw8hLfmCfKVwVKheCaPenwTfsn7yjv1h8BKRoTLTM7U52igxqrUEbVJconzFPA++8AQefPFJWdkfBi8RFUjulVzsWLUZidFntKmD2Kho+YrtlC7rj4mfz7TbUS+Dl4h027lqC/Zu3ImTh44h7VzhTh3klz2Pehm8RGTV/k3hCF+3DSf2RyHlbDJu3LguX7lFxEixm5d2IrRVIwx/5zVZ2RcGLxH9y5FdB7F7zTYc338U588k4drV/C/xshV3T3fM+vk9eJXylnfsB4OXiHAq4hh2rvoDkeFHcC4uUZu3dQavLBiHhu2aysp+MHiJiqD447HY8esmHN0dgbMxCci5nC1fsW+BVcpb3hjOysq6Hs8+ikf+00tW9oPBS1QEnD9zDtt+3ojDOw4g8VQcsi9d1mZl7V0pf1806dQcTTqEaX+6uLigT8NH5avW1QkLxatLJsvKfjB4iZxQ6rkUbP91MyK27cOZk3G4lJ4pXyksIkYK/nDN1c1VC9jGlqBtavnT08dLvvKn4d1fRHLCeVnlrUTJEpi36gN4lfaRd+wDg5fICYjdYOHrduLglnDERZ1GRtrFm1noABq1a4rGHZuhqeXLv3xZeffO/rfgM/z80Xeysm7QnFfR9K4WsrIPDF4iB5UUm4DIXRH4/evVSIiOx43rjvGrHNykLppYQlZ8VapZRd5VFxMVjdeeGCkr67o98yCeGNZHVvaBwUvkIMSoVmzBFT0PROvE5IQk+Yo9EDFy+6mGqnWqo3EHy4i2UzPUbBAs7xaMnnnemo2CMW7ZNFnZBwYvkZ0SXbvEFlzRYCZqTwQSTsXLV+xbYOVycuqgOUJbNZR3jSVGvGLkq2rB2mXw9islK9tj8BLZievXr9/s4mX5OrbnME4dPiFfsX9uHm54afowbVTrUry4vFt4xByvmOtV9eKM4WjepY2sbI/BS2RDYgvu0XB5tM2ByHztEBMf8G39S+zh7YkPtn0uq8In1vKO7DFIVtbd07MHeo7qLyvbY/ASmeiIZTS7a80WHN97BBlpGcjKuCRfcXxLt/8X7l4esip8euZ5a4TWxIRPZsrK9hi8RIUo+sgJ7PhlMyL3ROBcbBJyr1yRr9gv3+IlUMXNFVXdSuLX1HR517qFa5fCv1wZWRW+GQMmaW9kqub/thSl/EvLyrYYvEQGSjx9Btt+2qg1mdG24mbZ/1bcvwZtVTc3y7UbfEsUx+9p6ViZkiq/y7oZKxegcq2qsip8G75di4+mvCcr6wZOG4YW3drKyrYYvEQFkHY+FX/8sB4R2/cj8VQ8sjLEDjH7ao/4T3cK2n/aejEDX5xPkZV1Ez+ZjuAmIbIqfOnJaRh893Oysq7T493wzNgBsrItBi+RDtmXsrH5u7U4uGUv4k/EIjPdcXaI3dLVzxcP+ls/mWFP5iV8nKS2NVcYtXgCGrUPk5U59MzzVgmuhkkr5srKtlzkn0R0G7k5udhs+Ui7YOg0jOw+EK906ouvFnyqnZKb6UDbcv8q6/o/m5jfnruLvpG7kacFq2rRpbW8si7uWIxllKw+dVKYGLxEfyGWc+34dTPeHT0Ho3u8jP+0fwafzvgAEVv3a7+01284/gfE7Gtqwevhoi8eLmdellfmCevcUl6pOWp5w7QHDF4q0kR/g70bd2HpxLcx/uEhGNS+Nz58fRH2/r4LF5KStU0N9qpWw2A8+UpvTP/2LYS2VN8hdlnx7+RWTGfwXjJ/xNukQzN5pUZstbYHnOOlIufihTSsXPwlTh6IxPmEc7jqIKctVAyqjLC7W2pdvGo1qiPv3rRo5BzsWrtdVnkLcnfHiErlZXVnqVevYmKM+jblhwY+gccHm990/IXWvbX+wioqBlXB1K/my8p2OOIlp5edlY39m8Px5dzleLPvWIzo+gK2/LBeW/plz6HrF+CPLr3uw+j3X8dnB1di1vdvayPcf4au4KnjXDHVEa+n3qkGG4x4hVY6loglnIpD2nnbn4rMES85paO7b/Y8ENtwxbbcf00Z2MM+239wdXdDy65t0KRTM62bV0nXkvIV6/T0qBXLyaZVryyrvI2KjkW2YlC3f+guDHxjiKzMs2fDLiwYqr4rbcDUIWh1XwdZ2QaDl5zCqUPHtZ4HJ/ZZgvZgFC7b4Am7XuIXr/k9rbQuXuLEBZ8CdM/S0zTGtVgxzA+qJqu8TTgdh/Rrav0jmt/TGq/Mf1VW5rl+7Tr6NXlcVta1e7gz+r/2kqxsg1MN5JDEcTbrvvwF742ehxHdXsD0Z8fju8Vf4NC2fYqha/tNDpM+nY6h80drI8WChK7gVerfR+TcyRUdKzM8iqtHhK2mGlws/xvLVgyQlXX28ICNwUsOQTT9/uP79Vg26R2Me3gIJj01Qpuz3fP7DlxMSZPfpYftP+hdVnwgpOJ2Z5PlpTBWNtjyU0bYXerLysTx9RfOqm8MKQwMXrJLGanpWPP5j5jz0hQMvfs5jHlwMD55831s/2UTzserH+9tNj2/UEYGld7gzVEMXg8dmyiMfCPRSzRe1yPKxqNeBi/ZhSvZOdi8ci3eHjYTI7u/gBFdBuDrBZ8hKjwCly5m2G33A9HroG0pH/QKKIPRlSvATcdKACODykNnO8bLiuez6fn7qC7pKgz1dZ50EbnnsLyyDQYv2Uz4uu14f+xbGPPAIAzu0BefTluCg1v2aM1PbD8RcHv/DFrxJa7FPfGaq40+motG5HqoTjW42+iNJD9ELwZVUeEc8VIREbHjAD6e+i4mPDYUL7XuZQnd+Zbw3YaUxPM3l3sVszautd24905B+09uej6aGxi8ehuQF0rwWv4+N2y4pVrPLjbxzCA58ZyszMfgpUITffgkVsz5CFOefhWD2vbGgsFvYuuPG5AUk4CruVfld+lhu1/qFt5etw3af9ITvGJjh1H0jnjV53j1RYQtH7CJ4+L1OHs6QV6Zj8FLhjkXfxYr31mhLe0a0rEfpvUbi9//twpxx07jSo79n7yQl8uKIzmbTTVYRrzF9Iy2C+HhmpCVYbvgvXBO3460SxdF72TbYPBSvom2iL98/B3mvDgFQzs/qzWZ+XX5d9pmhkJZ02l1KkJN2QoBaN6llazUqH801xF+Bs6JFrP8u/EqlG3D+k4MNnPEG7H9AD6c/C4GtOyl9eUV/Sr0yLpou/PuGLykTIxaN37zGxYOna71ph12z/P4bvEKRO2JwKV0E0YP+Zw/FEutOj/ZDaPefU3refDWmiXo1vt++aoa1W2zrjrnRI2kJ3izFVc1eOrYQCFkZRZemJ2KOI7/zvkYr3QeoAXtLMsb/qaV65BzOUd+hz6XtNNCbIPBS3mK2nMYPy79+ubKg/bP4POZS3Fo6z67aSh9O2L016p7OwyeMxLLdn+JJVs/Q//XXkSjdk1vfoOFu6e+h1FZij1sxXZcVdlZxq4C0LN7Lfu62jZg3Y1yDJxqEE2Mvnvvfxjz8Cta0E56egxWf/YTUg1qchNUP1hemY+9GuhvxAOx4/uOaM1lju+P0jYyOAIRqqLvQZNOzVHK31fevbNzcWcxsscgWVn3fLkANPG2HmxfJ1/AJnEckIIqtatpvXSNMvvlN7Q3RRUtfbzRJ7CsrO7sjOVTzox49YdQL00firb3d5SVPuL8uh1rtmLn6i04cfCYvFs4Sgf4Y+6qJbIyH4O3iEuMjkdU+GGtsYwI2hQbLrHRQ7RGbNmtjdZgJrCK9d6y/3TxQjr+0+lZWVl3awmZNT9eSMVvim9Wor/AW6uN++VfPHo+dlhCS0VDL08MLB8oqzvT25O37/gX0KXnvbLKm9g0s2P1Vu1/86Ft++Vdc3R8vCv6jH1BVuZj8BYxYo+62C55/EAUTuw/ioRT6r9UtlaldlW8OG0oqoXUkHfyT8xXP9+8p6yse6SsPzr7Wm9kszo1DT9fUOsdIeZk39/yqawKbvmbH2D9V6tllbfaHu4YWtH6G5ZYdjYyOlZW1j0xpDcefOExWf1b+Pod2L5qC3av3W7TNb9D3x6PBm2ayMp8nON1cuKh157fd+J/8z/B9P7jMPr+QVqjGbE915FCV/AvV9aQ0BVc3Vy1rlaqLivO8eraMmzwwzUPb/V568vX1EJPz99H+OeBl2LTzLLJ72Jg697aPO3C4bOx67dtNg3dXqOetWnoCgxeJyNOVNj600a8O2oupvQahRHdBuC90XOxdsXPOBVxQn6XYzJ6iZqeTQeqy6/0BJXYrWfkybweXnr+PmoP14SSOpbIJcUm4It5n2BolxdurjwYOAUbV66z+XbiW7r2fgCde94nK9th8DqBfRt2a6PY8Y+8gv906IOPpyzG3o07EXc8Rjs11x4FliyJZt5eCNGxusDoX14vHR29lDcc6FxrbOQqAE8f9eDNvqH29xHcdWwKCbd8uvr1kx9wISlF3rEfHR7tgieH95WVbTF4HVDk3iP4fNZSTH5qFF5u0xuLX52ttUsUfUb/HrTGbDgwwq2gfaSMnza3OKZyBfQvFwA3HUFl9PHhelopqi4ncy+ub8OBkete9Yx4syxvJOq713TEhB0+MRKB+9pns9B3/EB5x/YYvA4g/kQsvn1nBab1G4chHfpi7sBJ2Pj1b4g/GYPcK3ltxbXdb8GdgrZzaV/twc6tj+TuOnZGGT3VoCd4lacadI54szIMDF4dc7xiilWlX8O53Fx46tw2bGs+fr5oelcLPDms7/8HbvW6QfJV+8BVDXYo9VwKtv2yGUd27Ef88RhcsuHWxvwaXLEcQjysB8E3ySnYmJ4hq7wVL1ECy3Z9YflT36jyThaOmI3wdTtklbeKrq4YX6WirO4s0fJGOC1Ofd3riEXjdTd3uZMjuyIwY8DrsrJuQpVKqPCPAzVF0MbmXEGc5Ss2J0e7Vm2oYyuiM1uthnVQq7Hlq1EIalqu9RwUagsMXjsgmnXsXrMVB7fsQ0zUSbkrrOCjDPH/wVb/cQeUD0BjL+sjSrH0SizBUvXu5uXwKV2w88lu+XDSYmz6br2s8uZnCfs3qlWR1Z2lXb2G12LiZGXdyzOGoU0PY068jT5yEq/3VD9sckSlCvAu7uJwQeti+bRUq0kIasuQFWu69Z7AYWsMXhsQLRFFE/D9m8MRHXEMqUkp8vhxYz/S2TJ4eweUQWuFDQdr09LxQ4r69uN5v7ybrw0Tt7Ni7nKs+vRHWeXNvVgxzFU4mVfvutd+Ewbinqe6y6pgzsYk4tUH/iMr68SUjyMErRBUvxaCGohRrQjcOvAt6ydfcUyc4zXJIctoVjQBf+3xYdrKgw8nvo3wtaIJeLIldEU8Gj+PZkToht3VAoNmDcfSHSvkHTWqc6J6unkJhi6/0rGcLPvGDVxVWHuqd93rZRvN8QrHL2fbbehWrlUVHR/rggFThmDGD+9g/PIZ6DmyP5p1buXwoStwxFtITuyPQvj6rYjacxRJlpHIFcvHOLPlJ85DmoWidfd22sOJ0gF//wF/odXTys277/XzRQ9/678guzIy8em5ZFlZN37ZVNRtXl9WBSMarohuV6pmVK8CH4VVCyNOxeKK4nKt+597BE8N6yOrgsnNycXANr3z2WTetgKrVEDNhsHaaLZW47qoGFRZvuKcGLwGSYpLxElL2B4/EIkTB6KQGC3m+YwfxRpN7ARr2a2t1mCmfLW8Hx4N6zoQKWfVQrJT6VJ4vIy/rO7sUFYWlujoDzFswViE3d1CVgUjFvaLXVWqJlWtjICSJWR1Z+NOxyHjmtr6adGuUnROKwixaUY0l9mxagsObNkr79qOyhSXb1l/1BYPwyxfNRuEoEZoTflK0cDgzae08ylaUxkRsictYXv66Cn5in0rWzEQre9th+ZdWqNGPX0/7OMfH464YzGyylsLb2/0LWe9+5X4uLswQf249oFvDkH7B++SVcHstITVO6/Ok5V14rw1leN/JsfGI1lx1CnaV/5n9ghZqRPbwEWDmb0bdtnh6R7/jl7x8Kt24xDUFCPahiFa4IqHZEUVg1eR2Fd/fP/N0eyJA0e1P68rLqq3JdGIpZUlaFt2bVPgj+jTnpuIyHC1Y7FVu1/pbTv4zJjndDcxvxMxOpw76E1ZWfdKxfII9nCX1Z1NjzuDBMsoVIVoZykatFsjlortXLPFEri7kJ6S1yoQ8ets609aN1C8REkEN6l7M2wbBlsCNwTuntb/3RUVDN47uGb5qHh8nwhaS8iKke3BKGTbyX5zVT5+pfDupuWyKriFw2chfP1OWeWtliWghil0v9LbdvDRQT3xyEtPyqpgju07ijf6TZCVdeKNRLyhWPNWQiJOKp6KENwkBBM/mS6rP4lPUDstI9rd63cgKTZR3rVvXqV9UCmoCuq1bIBOj3aFt+Xnj26PwfsX0YdPWILWErZyrvZiniML+1fSzRVLt3+ubTwwgp51r5Ut/+yxla1vONC7/Oq+/g+h14h+siqY2KjTmPCE+sd80ThcNBC35r3EJBxWPF3iVjN00Zh9++ot2oaOgk1bmTfiFatCxHOBOs1C0bJbO1QJri5fIWuKdPCeORlnCdlIHD8YqT0YO38mSb5iv3xLFEe6jsY3YsQrRr5GWDFvOVZ9orbu1d8S9lOrqT2ZHn4qBrmKbQLverwrnnv9JVkVzLn4JIy872VZWfd42TLo5Gt9bfLH585jj+IysZJuJbXVCI7A1d1NW0MtHoqF3d0aIQatLimKilTwJiec04JWTBuIP0UPBHvn7VIc1dxdUdUygqzm7o6EnBz8qNhoWzByw8EPS7/BN4vU1vOK02ln17C+00sYfzoOFxVXAeT3YdTtZKRexKCO/WVl3f3+pdHdr7Ss7uyL8ynYelFtG7TxVNYUqClRsoR2SkaN+rXR9K6WaNLJmNUk5OTBe9ESUGLlwckDYurgKKIdoB+tu4sLqmkh63YzbN3cte2qt2xOz8BXyeot997431zDGoSI0w3EKQcqxK//oppqHz2nxJ7B+VzFh1Htm2LUYusPo1Tk5lzB8y16KTflvqe0Lx4uY31t8vcpqViX5hhn1f2VaAzvF1gG1esFoVG7ZmjzQCf5ChnN6YL38I4DN6cPLF8nLSPbXMWny7YWZBnNdrR8jBXLlfJaK7orMxOfJqlvOBj34VTUa2HMR0LRuOe9cQtkZd2cGlWVWgrOik/QegWoqNO0Hl5brr4SwZqX2vXVemWoEGeuibPXbkes2xXbb2OzcxBj+TMiS8cOO/EbaIOFCOIfWaqsH6rUqYaGbZqi7YN3w83D+nI5KjinWUh38I89WDR8Ft4a/CZ++vAbRIZHOEzoCuJEgDBvL6sL9N2L6evMddnIfq86t6SqbkfVdVyOnbSGFNeRWZexJjUdS8+ew+z4RO2h2i+pafpCVzAxdL1L+6BOWCgeGdQLs35+H/NWf4BhCyfg7qfuZeiayOGDNzkhSQvct4fPxIE/wuVdx5Ot9Wuwzk3nfzFbHS0jXFb8O+k54cDoc8r0nNog3kjWp13ER0nntVH6O5ag/elCKg5Y3gzEsjh7I/7te3h5IKh+bdzb72FM+XIuFqz7CK8umYwezz0K//K3H71T4XPo4BVrbT+avNguA7dmg9raGk1V4kQAFfpHvMatPdY74lU/4UB9yGf48T+l1Ee8YonYdykXsNfyKUJ1Z5rZ/MuVQeXa1XD3k90xxhKwizZ9ivHLp+OxIb1RqZb17mpkDocO3k/eeB/H9h6VlW2J9YxiYf/M7xbis4MrMfm/s1C3mfrcqurHco/i+j6XGvnR3F33iFc1eNV/DI3exOKu48w3eyROXm7doyP6jBuIyV/Ow+xf3sfkL+bi6dHPIzgsVH4X2RuHDd4fl3yFbT9vlJX5fMuURtfePTDpsxla0M756R1tV1Wlmn8uofLQ8TFWUGk7KJZp6WFkUOn5WC6ovpl46jinTHTeMrL7ltFzxoXNy9dba4341Ih+GP/JDEvQvofnpwzWWiiKVorkGBx2VYM4ulycomuWEq4ltXaJou9Bw7ZqZ/Jv+HYtPprynqysU2k7eB03tLaDKiEtdLZ85Oz/mjGH/InAezZMfbuuWAEgVgJYsz4t3fIRXr0ZekE2hUTuOYJdv23Dvk27kZxwXt61X+Lnrm7zBtopC+LEBa25jM4DNcn+OGTwHtq6FwuHzpBV4Qm7uyVadWurtU0slo8D/8Qv+KJRc2VlnXrbwVhkKDboEcfKiONljPJi2z7KBzSKNa9i7as12y9m4r/n1ZfIzf35XZSrqrYpRGwL3rFmC/Zv2mPqG7U+4lfwz5+v4LB6CG5cTwtZcZaYOFOMnItDBu+7o+di7+9qzVr0EN27xM6oVt3bGnKG06Ft+zH7pamysq4w2g6KgxTFgYpGGXHvy8pbq8UuL7HbyxqxKkAsyVI19YvZqBFaS1Z/J3Ynbl+1xTKiDdfWcjsCv0A/tOjaTuvgVatRMEop/Dsjx+aQwTuwZU9cV9ximhfRBPxm0LbTtkYaTfziT+2rHnqqbQdnxicgXnHDgXgzEac2GGXiU6OUm7iIvgaiv4E1envyjl06GaEtG2rXmemZWrvEvRt24+DWfdo9ff4+2ix0N27AzcMD5atX1NomhnVtjVoN6sgXqahwyOAd1uV5ZKZelJW6gEqBaHVve22utkpw4S+tER9txz82XFbWKbcdPHMWJ7PVjuAR24XFtmGjzHxhMg7vPCirvIlOXqKjlzV6e/J2e+YB7Qh8MU9b0AYzInIL+xdAzNMGVi6v9aUV01f126g9IyDn5ZDBO+HRoUiKVftFFYvHe43sh5CwevKOeZITz2N4N/VjXVTbDr5/NgkRiqsVxFyomBM1ipizFnPXKlSboevtyWvvxMOvMuXLonr9Wmjcobn2jIDorxxyOZlnKfVlTacijtskdAUPnWtEVde9uunY6ZV9SW1krMpTz8m8qsvJHPwImGLFiqF0gD8adQxD33ED8f72FdrJuC9OG8bQpdtyyJ/4ikFq7QZvEUuIbEHv0+jLiisVRAczVUZvsdV1JLriluEkxc5k9kScrlC3RQM8MawP5v22FHNXLcGQeWPR4bEuRfosMVLjkD8h9VrcfLCiSswF2kLxEsW15tGqlLcN61jaJg5CNHLDgdj7r0o0/rmd2JwcrV+t6FsrmsuIL3sn3nDEOtoHXngC075ZgAVrl2Hku6+j2zMPopSf9SVzRH/lkMFbV2ebw30bbdfLwUvHsrTsG2rBq2eLrWDkqDc/I97bBe2tZuHiNXsj3tZcPdxQLSQI9zzdA+M/no5FGz/BmGVv4KEXn0S56pVufiNRPjlk8Ip1jnq2RyaePiOvzOepowmL6ohXzxZbQXXDgwp9I97r9h+0cjakpGtJVAiqjA6PdMbQRRPw7h+fY+Lns9BzRH8ENah985uIDOKwk1FiG6UeYkG9LejZiJF9TW1OVO/DKENbQ+oY8YptzYURtEasuhVbjlt0bYNeo57FSzNG4L1tK/DGV2+h74SXUL91Y/ldRIXDcYNXLqBXtXfDLnllrvw22s6L3uC11VRDYcnP+kcx196wfRieHN4XE5bPwFtrl2Hg9OHo3Os+NOvSWn4XkTkcNnjFrh89bDXi1TPHW3hTDQUPXrEZ5PslX+Pz2R/JO/ZPnLTw8KCeWuPvtzcsxytvjUXX3g+gRv3bbzcmMotDbqC4ZdaAibr243+85yvt5FQzicMhxSGRKsSJwjMVTuY9l5uLqbHq89YD3xiC9g/dJSs1KYnnsXv9TuzbuBtHdh2Sd+2bOA1XTEGJ48dF3wM9a46JzOTQwfvjB19bvr6SlXUvTnsF7Uw+OfWrhZ/jp2UrZZU3FxTD/KCqKFEs71nMzGvXMfa0+tH0z4x5Dt163y+r2xPzwLvXbtc+GYiwva44+raNmxt9Re/jEEvQBjetqy31KlWGzWXIMTjsVIMQorPDvi2mG/RsohC9dlXmeT11nkKRdfH2qxrE1t/3JyzUTtp9sc0z+HDSYuz5faddh663r4+2E3Hmj4sx5X/ztYdjYXe3YuiSQ3HoEa84c21w+z7KpwmXdHPFR7u/lJU5flvxKz6b+aGsrFPtyTv45Gl5ZV33Pg+g96vPam0q91pGs2JDSUqiev/bf7k54DSFOJpHLPMKaRaKxu2boXpoTRQvYe50EZHRHDp4hYVDp+OQjnaA723+RDvi2ix//LABH0xcJCvrVHvyvhodq7wKwquUNy5dzJSVfXO1vDkGVquA4MZ10eSuFqhet6ZdrKQgMpJDTzUI9XQuK9uxZqu8Moe7l/X+un+l2t9AT78Gew5dsa26XNUKaHN/RwyeNxozf1qMyStuHtYoHpQxdMkZOXzw1myofoS6YPZ6Xr2n2Cp39CrumP/pRAMZ//Jl0bRzS+2QxunfvY1pK9/Gc5MHo3HH5jx9gYoEh59qEIZ3GYCM1HRZWSdOBTbL8QNRmNpnnKysy6snb3JuLmJzriAmJ0f7U5zc4AhKlfFFtTpBaNCuiTaKrVCjsnyFqGhyiuBdOmGhdvyLqrdWLymUo35uJ/5ELMY9qn7YpDgqRxyZI6RdvYqYbEvQXsmx/JmDuJxcZN2h45c9Ebv1xAkf9Vs1Qt1WjbVTMIjoT04RvJu+XYvPZnwgK+t6Du+LHs8+LKvCJVYPDOumfry6OBxSTDaIoBUjW7Fm1965e7pro9iQ5vXRqF0YqofWMn2jCpEjcYrgPXMyDpOeGiEr68RxQFNWzJJV4RIPtsQ6WWchQta3rJ8WrMFhoWjSsbl24i8fghGpc4rgFcY/MgTn4tRPqjVrnlesNR7YqrfWkNwRFXNx0dbQitFsSFh97cDG9ORULXyJKH+cJng/nf4BNq9cKyvrZqxcoKunb36J03DHPjLUkEY1ZgmyhGu95g0tYRuKWg3raKfkEpFxnCZ4t/+yCcsmvSMr6x4a+DgeH/y0rIyTnZV9c3eY5Wv/5nCttneVa1dFXS1o66N24xBdrSyJSD+nCd7z8Wcx7uEhsrKuQvVKmP2j+o6yvOzfFI69ornMpt1IO58q79qvgMrltYMaQ5rVR52mdTltQGQypwle4c0+Y3D66ClZWZffed7I8MOWoLWMaDftsemxQno0aNMEze5pjeCwegioVE7eJSJbcKrg/XLucqz78hdZWTfp85mo1TBYVncmwvzmqHY3og+flHftm6u7K8pVraiNaht1CNN6Hug9bp6ICodTBW/4uu14f+x8WVnX/Zn70Xv0c7L6U1Js4s2+tJYvR2kCXqJECZStFIhaTerKJV41uf2WyE45VfCmJV/AqO4vysq60gF+WLR+GdJT0rB/857/b5l4Q7FRjS2JZV7+5cqgZoNgrYuXOM6mbIVA+SoR2TOnCl5h9sDXcWzvUVlZJ57gG3n8eWESfWjFdIFoBu7p46kd4EhUVInNPF6lS8G7lDcCKpfTeoE4yuDD6YJ35eIv8OvH5jXBISL7IQ44rdO0Hjr3vA9evrdvNmUPnC54D/yxB4uGz5SV4xL/UfQd8ENEtwRWKa+Fb+en7pV37IvD9+P9KzFlsOnb32TlGO4UrgxdovwT7QO+mPMR5g2aiospafKu/XCaEW9y4jnMfG4i0s5fkHfsl4lHlhEVeeLoq5HvvY6qdWrIO7bnFMF7KuIEpvf/s9m4PQXb36cMGLlEtjLj+0Xark174PBTDWKEO/fFSbK6yZbR9s9/9t+nDBi6RLbyxjNjkJluH+cPOnzwfjhx0W1bLv498Mxjq38uEeUtKzMLy6e+Kyvbcujg/e3znxAZHiGrv+PYkoj+af+m3Vpu2JrDBm9yQhLW2MG/QCJyLCI3RH7YksMG75rPftZOQlDD8S8R3SRyQ+SHLTnkqobcnFy8ev9LyEy9KO+oc/V1h0vxYnBxLwmXki5wcS2B4q4ucC/nDfeybABO5CiyEjKQceqC5U/9OSB2tc35dQlc3VzlHXM5ZPBGbN+PBUOmyUpdg1HtEdimmqyIyBnE/HAEJz7ZKyt1g2aPQtO7W8rKXA451XBgc7i8Utd55TMMXSInVO2hetrvt16Htu2TV+ZzyOCNOaKvGXmtfk3lFRE5K/GJVo8zx2PklfkcMngz0jLklXWeFUtp74hE5NzEJ1qP8j6ysk5PjhjNIYP3Urr6vzCfIH95RUTOzqe6+qkrenLEaA4ZvGIHiirPiurvgETk2LyqqgevnhwxmkMGLxGRI2PwEhGZjMFLRGQyBi8RkckYvEREJmPwEhGZjMFLRGQyBi8RkckYvEREJmPwEhGZjMFLRGQyBi8RkckYvEREJmPwEhGZjMFLRGQyBi8RkckYvEREJmPwEhGZjMFLRGQyBi8RkckYvEREJmPwEhGZjMFLRGQyBi8RkckYvEREJmPwkulyLlxGakQSEtadwKkvDyBhw0lcOHgWWWcu4trlXPldRM6rWHbO1Rvy2mEMaPaEvLKuxpMNENSzkazIFjKiU5F2JAnpUedxYX8icjOvyFdur1y7aghsUx2BrarIO0RqxBt59FeHZGXdh+FfyytzccRLhebqpSs4uWI/wsetwrFl4UjaEmM1dAXxfYdmb8KuUb8i5vsjyL2YI18hcg4MXioUib+ftATuGpz+JgLXr1yXd/XJOHUBJz7di93jViN+9TF5l8jxMXjJcBHzt+DIO9txKT5d3imYy4kZiPpgF/ZNWovk8Hh5l8hxMXjJUJv7foWkLadlZawLh5JwYPpGHHl7GzKiL8i7RI6HwUuGOTT3D6U53IJK3HgKe8atwcn/7kduBud/yfEweMkQ8auicG5bjKwK37Ur13D62whtHjl+Ded/ybEweKnA0iPPI2rpblmZKyvhIqKW7MK+yeuQvOeMvEtk3xi8VGAxPxyVV7YjNmAcmLYBRxZtR8bpNHmXyD4xeKlAkv44jfM7Y2Vle4kbTmLPuFU49cUB5GZy/pfsE4OXCiT250h5ZT+u5VxD9NeHtAdwCWuPy7tE9oPBS/mWcToVF48ny0pdjWpeeL5/EKa/0RBLFrfAa+NC0b9PDdQP9ZXfYYxLZy7i6Hs7sW/KeqTsS5B3iWyPwUv5Jvou6NW2TQAmv94AHdoHolJFT7i7u6B2LR/c1akcXh1RVwvkShU95Hcb48KBROx/43ccXbwdl+KM2dRBVBAMXsq3lL36VhGIsB34fE1Z3Z74ntcn1MejD1WGp2cJedcYCetPYvfY1Tj1v4O4evmqvEtkPgYv5dsVHc1rxMj2EUuYqnB3L46HHqyMieND0alDoLxrDNF2MtoSvOFjV2ltKYlsgcFL+XZVx66xKpW94O/nKis1FSt44Nl+QRg9oi4aNigt7xpDTDkcfXcH9k1dj5R8TJkQFQSDl/LtysVseWVdUA1veaVfaKgvRg4LwQvP1bQEuKe8awwxT73fEr4ihI1q6kNkDYOX8u3GNfUe+h4eBf9Ra9c2ABPH18djj1SGt5fB87/rTmjbj099dQjXsjn/S4WLwUsOxc3NBQ/eXxmvjQ/FXZ2Mnf8VjdujvzygBbDoJ0xUWBi85JAqlPdA/z5BGDOqLho1NHb+NzMmVesnvH/aBqQePCvvEhmHwUsOrV5dX4wYGoKBA2qiWlUvedcYKXvOYO/kdYh8f4fWjIfIKAxecgptWwdo0w+PP1oFPt4l5V1jnPntBMLHrsbpbw7heg7nf6ngGLzkNFxLuuCBHpW0AL67Uzl51xiiwfvJFQewW8z/bjgl7xLlD4OXnE75cu7o16cGxr1aD00a+8m7xsg8nYoji7ZpRxClHuL8L+UPg5ecVkhIKQwbUgcvDqiF6tWMnf8Vh27unbQOkR/sQlZChrxLpIbBS06vTeuyWge0Jx6rilI+Bs//rj6mLT+L+fYwrl+5Ju8S5Y3BS0VCyZIuuP++ipg4oT7u6Vxe3jVGbkY2Tvx3nyWAV+Pspmh5l+jOGLxUpAQGuKHP09Uxbkwomjbxl3eNkRGdisMLt+LgrE1sP0l5YvBSkRQS7IOhg4Px0sDaqFHd2Pnf8zvjED5+Dbuf0R0xeKlIa92yjNb/98knqsLX17j5X7H9WDTeEc3Xif6JwUtFnotLMfToXlEL4C73GDv/K5qvi5OPif6KwUsklS3jhmd6VceEsaEICzNu/lecfJy05bSsiBi8RP8SXNsHrwwKxqCBtQvUR/ivIuZvQWpEkqyoqGPwEt1BSzH/O74+ej1ZDX6l3eTd/It8fyeupKs3jyfnxeAlykMxy29I924VtPPfunUp2Pyv6HCWtCVGVlSUMXiJFJQp44qne1bXdsA1b5b/+d9z2zjXSwxeIl1q1/LB4JeDLV+1Ubumj7yrLu3oeaTsS5AVFVUMXqJ8aN6sjNZ+UvypF1c4EIOXqADEyFdv+GZEX5BXVFQxeIkKSISvv5+rrKzLSc6SV1RUMXiJDFBTx3yvOM0iNzNHVlQUMXiJDFC/Xil5pebKhcvyiooiBi+RAVxLFpdXaq5m89DMoozBS2SAYyf1Hf/u5u8hr6goYvASGeD48Ux5ZV0xFxdL8HrKiooiBi9RAX33Qxziz6ivVHAP8LSEbzFZUVHE4CUqABG63/94RlZqONolBi9RPiQlZePTz6N1h64Q0KKKvKKiisFLpENu7g38/MsZvDEjAus36O+vW8LLFeXaVZMVFVUMXiJF27Yl443pEfh6ZRwyMvK3HKxc22pwK8OphqKOwUtkxdHIi5j/dhSWLDuBmNhL8m7+lGtXXV5RUcbgJbqDs0nZWP5ZNGbOOYIDB1Ll3fyr1KU2/OqXkxUVZQxeon+4cuU6fhTzuNMjsGGjMeekeVf3Q8jLLWVFRR2Dl+gv/th6DlOnReDblXHIzDRuW2/TyZ3lFRGDl0hz+Eg65i2MxIcfnUJcvLFtG8OmdUPJUu6yImLwUhGXkJiNjz+Nxux5R3HwYJq8a4yyzSqj05e9ULpugLxDdBODl4qk7Ozr+P7HeG0ed+MmY+Zx/6pW36ZoNL4Tirvq61pGRQODl4qczX+c0wL3ux/ikZVlbHvG0qHl0HBcJ1R7uJ68Q/RvDF4qMiIOp2HuW5FYtvyUrqY2KjzL+6DOC80R9kYXBDSvLO8S3R6Dl5zemYQsfGQJ2znzI3Eowth5XJcSLqj2SCjCZnRD5XvryLtEeWPwktPKunwN32nzuEew6Y9z8q5xyrWvrgVurT5N4OrLVQukjsFLTkkE7ZvTD+P7H+Jx+bLB87h1A9FwTEfUH94OpWrqO9qdSGDwklMRUwliSkFMLYgpBiO5B3gj+PnmCJvWFQEt2dqR8o/BS05BbHr48OOT2sMz8RDNSOK0iGoP1UPzmd1RpQfncangGLzk0C5lXcXK7+Pw5owI/LHlvLxrHNFNrNmM7qjVrylc/TiPS8Zg8JLDEhsf3pwegR9+OqNtiDCS2G3WcEwH1B/RDqVqcx6XjMXgJYdz4GAaZs09qm31FVt+jSQOogx+vpnWXyGgZVV5l8hYDF5yGLFxWVi67CTmL4zEkaPp8q4xihW7OY8rphWq9AiRd4kKB4OX8s21tIe8su5sUo680k+0ZxRtGsU23y3bCmEet221m+tx+zXlCcBkCgYv5Zv4WK7q9OlMeaWPaEQu+uOKxuSiQbmRStcJQINR7VF/ZHv4BpeVd4kKH4OX8s29jJe8sk4co7NqTYKsrNt/IBUz5hzRjt5JOmfsPK44bLJ2/zBtlBvYhif+kvkYvJRvrv7qUw3Cl1/Fyqs7i4nNwpJlJ/HW21GIjLwo7xqnyv0haGYJ3KoP1pV3iMzH4KV886rsK6/U9Xt+B3aHp8jqT2KXmTg2fer0CGwrhHncwNZV0Wx6NwQ/1wzuZdVH6kSFoVh2ztUb8tphDGj2hLyyrsaTDRDUs5GsyEi5GTnYOexn5KRelnfUBQa6o0plT/j5uSLyaDriE/T//1BRqnZZVH2gLsq145RCUXDqywOI/uqQrKz7MPxreWUujngp30r6uGkrAvLj3Lls7Nl7AevWny2U0HXz80Ttvk3RfEZ3hi7ZHQYvFUhgu+ryyn6IdbjNZnZDVXEKBH/CyQ7xx5IKRCzDCmxlH526xP+OZtO6ajvP3AM4j0v2i8FLBSYeWLnpXOFgJJ9a/lpPhQajO8K3bqC8S2S/GLxUYG5lvVBvSBtZmUfsnKvVtwlazBTzuPY35UF0JwxeMoR/owqoM6C5rApf5fvqoJklcKs9HGr5KeaPMTkW/sSSYUQYii24halsiypo+mZXLeQ9AjmPS46JwUuGEltwW77VA95V9G+uyItPkD9Ch7VFo7Ed4VeP87jk2Bi8ZDjvan7aqDSwVcH72bpbRrU1n2mibfMt36GGvEvk2Bi8VCjE5ooGozto87BV7w+Bm5++VQ9+Dcuj7qBWaLXgAVR/NBQuJYvLV4gcH7cMkynE9uKkrTG4FJuGnJQsZIuv5Eu4evkq3Mt4wr2sp9Y1TFz7N63E6QTKF0fZMszgJSKnwV4NRER0WwxeIiKTMXiJiEzG4CUiMhmDl4jIZAxeIiKTMXiJiEzG4CUiMhmDl4jIZAxeIiKTMXiJiEzG4CUiMhmDl4jIZAxeIiKTMXiJiEzG4CUiMhmDl4jIZAxeIiKTMXiJiEzG4CUiMhmDl4jIZAxeIiKTMXiJiEzG4CUiMhmDl4jIZA4ZvB7envLKuqyEDHlFRM7uUmyavLJOT44YzSGD19PHW15Zl3HqgrwiImeXcVo9ePXkiNEcMni9fb3klXVZCRcR88MRWRGRszq3LQaXz6p/wtWTI0ZzyOANqFxeXqk58cleeUVEzurQ3D/klZoyFQPllfkcMnib3tVSXqlb/+jn2jsiETkX8YlW/H7r1aBNE3llvmLZOVdvyGuHcTElDSO6vSArfTzK+8Cneml4VS0t7xCRIxIPzsUzHDGdmB9zVy1B6QB/WZnLIYNXeGfkbOzftFtWRETqGndsjsHzRsvKfA451SD0eO4xuLq5yoqISI3IDZEftuSwwVsjtCbue/5RWRERqRG5IfLDlhw2eIX7Le9awU3ryoqIKG8N2jbRcsPWHDp4hSeH95dXRER56z3meXllWw4fvNXrBqHv+IGyIiK6veGLJqBsxXKysi2HD16hw6NdtH+pRES3IwZnoa0by8r2HHY52e0kJyThv7OW4dDWffIOERVl4hmQmI4Un4ztiVMF7y0/f/Qtfl22Eldyrsg7RFSUiCVjYvWCPTxIux2nDF4h+vBJ/GIJYG6yICpaxOYIsU7X1kvG8uK0wXtL2vkL2tTDoW37kJJwDpnpl5CVkYnLmVnyO4jIEYl+uqK1o+gyJhpniR4uIc1CUaqM/bcDcPrgJSKyN06xqoGIyJEweImITMbgJSIyGYOXiMhkDF4iIpMxeImITMbgJSIyGYOXiMhkDF4iIpMxeImITMbgJSIyGYOXiMhkDF4iIpMxeImITMbgJSIyFfB/HPr9yPF8Q4MAAAAASUVORK5CYII=;" parent="1" vertex="1">
                    <mxGeometry x="330" y="454.5" width="35.78" height="32" as="geometry"/>
                </mxCell>
                <mxCell id="128" value="Type" style="fillColor=none;strokeColor=none;align=left;fontSize=14;" parent="1" vertex="1">
                    <mxGeometry x="1200" y="512" width="240" height="40" as="geometry"/>
                </mxCell>
                <mxCell id="130" value="Movie" style="shape=ellipse;fillColor=#eeeeee;strokeColor=#999999;gradientColor=#cccccc;html=1;align=left;spacingLeft=4;fontSize=17;fontColor=#666666;labelPosition=right;shadow=0;" parent="1" vertex="1">
                    <mxGeometry x="1217.5" y="562" width="15" height="15" as="geometry"/>
                </mxCell>
                <mxCell id="133" value="TV show" style="shape=ellipse;fillColor=#eeeeee;strokeColor=#999999;gradientColor=#cccccc;html=1;align=left;spacingLeft=4;fontSize=17;fontColor=#666666;labelPosition=right;shadow=0;" parent="1" vertex="1">
                    <mxGeometry x="1310" y="561.25" width="15" height="15" as="geometry"/>
                </mxCell>
                <mxCell id="135" value="Movies" style="rounded=0;whiteSpace=wrap;html=1;align=left;" parent="1" vertex="1">
                    <mxGeometry x="570" y="562" width="130" height="30" as="geometry"/>
                </mxCell>
                <mxCell id="136" value="▼" style="text;html=1;strokeColor=none;fillColor=none;align=center;verticalAlign=middle;whiteSpace=wrap;rounded=0;" parent="1" vertex="1">
                    <mxGeometry x="671" y="562" width="29" height="30" as="geometry"/>
                </mxCell>
                <mxCell id="137" value="動画タイプセレクト&lt;br&gt;の選択アイテムを変更する。" style="verticalLabelPosition=middle;verticalAlign=middle;html=1;shape=mxgraph.basic.6_point_star;fillColor=none;fontSize=12;horizontal=1;align=center;labelPosition=center;" parent="1" vertex="1">
                    <mxGeometry x="1440" y="1317" width="180" height="63" as="geometry"/>
                </mxCell>
                <mxCell id="139" style="edgeStyle=orthogonalEdgeStyle;curved=1;html=1;entryX=0;entryY=0.5;entryDx=0;entryDy=0;entryPerimeter=0;endArrow=open;endFill=0;exitX=1;exitY=0.5;exitDx=0;exitDy=0;" parent="1" source="67" target="137" edge="1">
                    <mxGeometry relative="1" as="geometry">
                        <mxPoint x="1290" y="1560" as="sourcePoint"/>
                        <mxPoint x="1430" y="1265.0000000000002" as="targetPoint"/>
                    </mxGeometry>
                </mxCell>
                <mxCell id="140" style="edgeStyle=orthogonalEdgeStyle;curved=1;html=1;exitX=1;exitY=0.5;exitDx=0;exitDy=0;exitPerimeter=0;entryX=0;entryY=0.5;entryDx=0;entryDy=0;endArrow=open;endFill=0;" parent="1" source="137" target="96" edge="1">
                    <mxGeometry relative="1" as="geometry">
                        <mxPoint x="1610" y="1265" as="sourcePoint"/>
                        <mxPoint x="1719.9999999999968" y="1292" as="targetPoint"/>
                    </mxGeometry>
                </mxCell>
                <mxCell id="141" value="(*1)&lt;br&gt;フィルター条件は下記の組み合わせ&lt;br&gt;・タイトルに、検索インプットボックスの文字列を含む&lt;br&gt;・動画タイプのセレクトで選択された項目とタイプが同じ" style="shape=note;whiteSpace=wrap;html=1;backgroundOutline=1;darkOpacity=0.05;align=left;" parent="1" vertex="1">
                    <mxGeometry x="1920" y="1223.5" width="210" height="116.5" as="geometry"/>
                </mxCell>
                <mxCell id="142" value="VideoType" style="swimlane;childLayout=stackLayout;horizontal=1;startSize=30;horizontalStack=0;rounded=1;fontSize=14;fontStyle=0;strokeWidth=2;resizeParent=0;resizeLast=1;shadow=0;dashed=0;align=center;fillColor=none;" parent="1" vertex="1">
                    <mxGeometry x="575.31" y="2460" width="234.69" height="180" as="geometry"/>
                </mxCell>
                <mxCell id="143" value="&lt;ul&gt;&lt;li&gt;id (PK)&lt;/li&gt;&lt;li&gt;name (unique)&lt;/li&gt;&lt;li&gt;sortOrder&lt;/li&gt;&lt;li&gt;createdAt&lt;/li&gt;&lt;li&gt;updatedAt&lt;/li&gt;&lt;/ul&gt;" style="text;strokeColor=none;fillColor=none;html=1;whiteSpace=wrap;verticalAlign=top;overflow=hidden;fontSize=12;" parent="142" vertex="1">
                    <mxGeometry y="30" width="234.69" height="150" as="geometry"/>
                </mxCell>
                <mxCell id="144" value="" style="edgeStyle=entityRelationEdgeStyle;fontSize=12;html=1;endArrow=ERoneToMany;curved=1;exitX=0;exitY=0.5;exitDx=0;exitDy=0;entryX=1;entryY=0.75;entryDx=0;entryDy=0;" parent="1" source="143" target="56" edge="1">
                    <mxGeometry width="100" height="100" relative="1" as="geometry">
                        <mxPoint x="415.30999999999995" y="2640" as="sourcePoint"/>
                        <mxPoint x="260" y="2695" as="targetPoint"/>
                    </mxGeometry>
                </mxCell>
                <mxCell id="146" value="api起動時に、初期データとして下記を登録する。&lt;br&gt;&lt;br&gt;1: Movie&lt;br&gt;2: TV show&lt;br&gt;" style="shape=note;whiteSpace=wrap;html=1;backgroundOutline=1;darkOpacity=0.05;align=left;" parent="1" vertex="1">
                    <mxGeometry x="870" y="2520" width="210" height="116.5" as="geometry"/>
                </mxCell>
            </root>
        </mxGraphModel>
    </diagram>
</mxfile>